ISO-10303-21;
HEADER;
FILE_DESCRIPTION(('FreeCAD Model'),'2;1');
FILE_NAME('Open CASCADE Shape Model','2026-06-29T21:26:23',(''),(''),
  'Open CASCADE STEP processor 7.8','FreeCAD','Unknown');
FILE_SCHEMA(('AUTOMOTIVE_DESIGN { 1 0 10303 214 1 1 1 1 }'));
ENDSEC;
DATA;
#1 = APPLICATION_PROTOCOL_DEFINITION('international standard',
  'automotive_design',2000,#2);
#2 = APPLICATION_CONTEXT(
  'core data for automotive mechanical design processes');
#3 = SHAPE_DEFINITION_REPRESENTATION(#4,#10);
#4 = PRODUCT_DEFINITION_SHAPE('','',#5);
#5 = PRODUCT_DEFINITION('design','',#6,#9);
#6 = PRODUCT_DEFINITION_FORMATION('','',#7);
#7 = PRODUCT('XH_top_entry_base_2P','XH_top_entry_base_2P','',(#8));
#8 = PRODUCT_CONTEXT('',#2,'mechanical');
#9 = PRODUCT_DEFINITION_CONTEXT('part definition',#2,'design');
#10 = SHAPE_REPRESENTATION('',(#11,#15,#19),#23);
#11 = AXIS2_PLACEMENT_3D('',#12,#13,#14);
#12 = CARTESIAN_POINT('',(0.,0.,0.));
#13 = DIRECTION('',(0.,0.,1.));
#14 = DIRECTION('',(1.,0.,-0.));
#15 = AXIS2_PLACEMENT_3D('',#16,#17,#18);
#16 = CARTESIAN_POINT('',(2.5,0.,0.));
#17 = DIRECTION('',(0.,0.,1.));
#18 = DIRECTION('',(-1.,1.224646799147E-16,0.));
#19 = AXIS2_PLACEMENT_3D('',#20,#21,#22);
#20 = CARTESIAN_POINT('',(0.,0.,0.));
#21 = DIRECTION('',(0.,0.,1.));
#22 = DIRECTION('',(1.,0.,0.));
#23 = ( GEOMETRIC_REPRESENTATION_CONTEXT(3) 
GLOBAL_UNCERTAINTY_ASSIGNED_CONTEXT((#27)) GLOBAL_UNIT_ASSIGNED_CONTEXT(
(#24,#25,#26)) REPRESENTATION_CONTEXT('Context #1',
  '3D Context with UNIT and UNCERTAINTY') );
#24 = ( LENGTH_UNIT() NAMED_UNIT(*) SI_UNIT(.MILLI.,.METRE.) );
#25 = ( NAMED_UNIT(*) PLANE_ANGLE_UNIT() SI_UNIT($,.RADIAN.) );
#26 = ( NAMED_UNIT(*) SI_UNIT($,.STERADIAN.) SOLID_ANGLE_UNIT() );
#27 = UNCERTAINTY_MEASURE_WITH_UNIT(LENGTH_MEASURE(2.E-06),#24,
  'distance_accuracy_value','confusion accuracy');
#28 = PRODUCT_RELATED_PRODUCT_CATEGORY('part',$,(#7));
#29 = SHAPE_DEFINITION_REPRESENTATION(#30,#36);
#30 = PRODUCT_DEFINITION_SHAPE('','',#31);
#31 = PRODUCT_DEFINITION('design','',#32,#35);
#32 = PRODUCT_DEFINITION_FORMATION('','',#33);
#33 = PRODUCT('base','base','',(#34));
#34 = PRODUCT_CONTEXT('',#2,'mechanical');
#35 = PRODUCT_DEFINITION_CONTEXT('part definition',#2,'design');
#36 = ADVANCED_BREP_SHAPE_REPRESENTATION('',(#11,#37),#1872);
#37 = MANIFOLD_SOLID_BREP('',#38);
#38 = CLOSED_SHELL('',(#39,#129,#168,#192,#249,#273,#298,#322,#410,#442,
    #467,#517,#590,#607,#632,#809,#840,#852,#876,#942,#960,#993,#1017,
    #1048,#1065,#1098,#1131,#1148,#1165,#1196,#1208,#1225,#1242,#1348,
    #1428,#1445,#1462,#1479,#1496,#1513,#1530,#1547,#1569,#1586,#1603,
    #1620,#1632,#1678,#1724,#1746,#1763,#1780,#1792,#1814,#1831,#1848,
    #1860));
#39 = ADVANCED_FACE('',(#40),#124,.T.);
#40 = FACE_BOUND('',#41,.T.);
#41 = EDGE_LOOP('',(#42,#52,#60,#68,#76,#84,#92,#101,#109,#118));
#42 = ORIENTED_EDGE('',*,*,#43,.T.);
#43 = EDGE_CURVE('',#44,#46,#48,.T.);
#44 = VERTEX_POINT('',#45);
#45 = CARTESIAN_POINT('',(-2.45,-0.7,7.));
#46 = VERTEX_POINT('',#47);
#47 = CARTESIAN_POINT('',(-2.,-0.7,7.));
#48 = LINE('',#49,#50);
#49 = CARTESIAN_POINT('',(-5.,-0.7,7.));
#50 = VECTOR('',#51,1.);
#51 = DIRECTION('',(1.,0.,0.));
#52 = ORIENTED_EDGE('',*,*,#53,.F.);
#53 = EDGE_CURVE('',#54,#46,#56,.T.);
#54 = VERTEX_POINT('',#55);
#55 = CARTESIAN_POINT('',(-2.,2.95,7.));
#56 = LINE('',#57,#58);
#57 = CARTESIAN_POINT('',(-2.,2.65,7.));
#58 = VECTOR('',#59,1.);
#59 = DIRECTION('',(0.,-1.,0.));
#60 = ORIENTED_EDGE('',*,*,#61,.T.);
#61 = EDGE_CURVE('',#54,#62,#64,.T.);
#62 = VERTEX_POINT('',#63);
#63 = CARTESIAN_POINT('',(4.5,2.95,7.));
#64 = LINE('',#65,#66);
#65 = CARTESIAN_POINT('',(-1.7,2.95,7.));
#66 = VECTOR('',#67,1.);
#67 = DIRECTION('',(1.,0.,0.));
#68 = ORIENTED_EDGE('',*,*,#69,.T.);
#69 = EDGE_CURVE('',#62,#70,#72,.T.);
#70 = VERTEX_POINT('',#71);
#71 = CARTESIAN_POINT('',(4.5,-0.7,7.));
#72 = LINE('',#73,#74);
#73 = CARTESIAN_POINT('',(4.5,2.65,7.));
#74 = VECTOR('',#75,1.);
#75 = DIRECTION('',(0.,-1.,0.));
#76 = ORIENTED_EDGE('',*,*,#77,.T.);
#77 = EDGE_CURVE('',#70,#78,#80,.T.);
#78 = VERTEX_POINT('',#79);
#79 = CARTESIAN_POINT('',(4.95,-0.7,7.));
#80 = LINE('',#81,#82);
#81 = CARTESIAN_POINT('',(-5.,-0.7,7.));
#82 = VECTOR('',#83,1.);
#83 = DIRECTION('',(1.,0.,0.));
#84 = ORIENTED_EDGE('',*,*,#85,.T.);
#85 = EDGE_CURVE('',#78,#86,#88,.T.);
#86 = VERTEX_POINT('',#87);
#87 = CARTESIAN_POINT('',(4.95,2.9,7.));
#88 = LINE('',#89,#90);
#89 = CARTESIAN_POINT('',(4.95,-2.35,7.));
#90 = VECTOR('',#91,1.);
#91 = DIRECTION('',(0.,1.,0.));
#92 = ORIENTED_EDGE('',*,*,#93,.T.);
#93 = EDGE_CURVE('',#86,#94,#96,.T.);
#94 = VERTEX_POINT('',#95);
#95 = CARTESIAN_POINT('',(4.45,3.4,7.));
#96 = CIRCLE('',#97,0.5);
#97 = AXIS2_PLACEMENT_3D('',#98,#99,#100);
#98 = CARTESIAN_POINT('',(4.45,2.9,7.));
#99 = DIRECTION('',(-0.,0.,1.));
#100 = DIRECTION('',(0.,-1.,0.));
#101 = ORIENTED_EDGE('',*,*,#102,.T.);
#102 = EDGE_CURVE('',#94,#103,#105,.T.);
#103 = VERTEX_POINT('',#104);
#104 = CARTESIAN_POINT('',(-1.95,3.4,7.));
#105 = LINE('',#106,#107);
#106 = CARTESIAN_POINT('',(4.95,3.4,7.));
#107 = VECTOR('',#108,1.);
#108 = DIRECTION('',(-1.,0.,0.));
#109 = ORIENTED_EDGE('',*,*,#110,.F.);
#110 = EDGE_CURVE('',#111,#103,#113,.T.);
#111 = VERTEX_POINT('',#112);
#112 = CARTESIAN_POINT('',(-2.45,2.9,7.));
#113 = CIRCLE('',#114,0.5);
#114 = AXIS2_PLACEMENT_3D('',#115,#116,#117);
#115 = CARTESIAN_POINT('',(-1.95,2.9,7.));
#116 = DIRECTION('',(-0.,-0.,-1.));
#117 = DIRECTION('',(0.,-1.,0.));
#118 = ORIENTED_EDGE('',*,*,#119,.T.);
#119 = EDGE_CURVE('',#111,#44,#120,.T.);
#120 = LINE('',#121,#122);
#121 = CARTESIAN_POINT('',(-2.45,3.4,7.));
#122 = VECTOR('',#123,1.);
#123 = DIRECTION('',(0.,-1.,0.));
#124 = PLANE('',#125);
#125 = AXIS2_PLACEMENT_3D('',#126,#127,#128);
#126 = CARTESIAN_POINT('',(1.25,0.525,7.));
#127 = DIRECTION('',(0.,0.,1.));
#128 = DIRECTION('',(1.,0.,0.));
#129 = ADVANCED_FACE('',(#130),#163,.T.);
#130 = FACE_BOUND('',#131,.T.);
#131 = EDGE_LOOP('',(#132,#133,#141,#149,#157));
#132 = ORIENTED_EDGE('',*,*,#43,.F.);
#133 = ORIENTED_EDGE('',*,*,#134,.T.);
#134 = EDGE_CURVE('',#44,#135,#137,.T.);
#135 = VERTEX_POINT('',#136);
#136 = CARTESIAN_POINT('',(-2.45,-0.7,3.9));
#137 = LINE('',#138,#139);
#138 = CARTESIAN_POINT('',(-2.45,-0.7,1.95));
#139 = VECTOR('',#140,1.);
#140 = DIRECTION('',(0.,0.,-1.));
#141 = ORIENTED_EDGE('',*,*,#142,.T.);
#142 = EDGE_CURVE('',#135,#143,#145,.T.);
#143 = VERTEX_POINT('',#144);
#144 = CARTESIAN_POINT('',(-1.7,-0.7,3.9));
#145 = LINE('',#146,#147);
#146 = CARTESIAN_POINT('',(-5.,-0.7,3.9));
#147 = VECTOR('',#148,1.);
#148 = DIRECTION('',(1.,0.,0.));
#149 = ORIENTED_EDGE('',*,*,#150,.F.);
#150 = EDGE_CURVE('',#151,#143,#153,.T.);
#151 = VERTEX_POINT('',#152);
#152 = CARTESIAN_POINT('',(-1.7,-0.7,6.5));
#153 = LINE('',#154,#155);
#154 = CARTESIAN_POINT('',(-1.7,-0.7,4.067949337881));
#155 = VECTOR('',#156,1.);
#156 = DIRECTION('',(0.,0.,-1.));
#157 = ORIENTED_EDGE('',*,*,#158,.F.);
#158 = EDGE_CURVE('',#46,#151,#159,.T.);
#159 = LINE('',#160,#161);
#160 = CARTESIAN_POINT('',(-1.638235294118,-0.7,6.397058823529));
#161 = VECTOR('',#162,1.);
#162 = DIRECTION('',(0.514495755428,0.,-0.857492925713));
#163 = PLANE('',#164);
#164 = AXIS2_PLACEMENT_3D('',#165,#166,#167);
#165 = CARTESIAN_POINT('',(-5.,-0.7,3.9));
#166 = DIRECTION('',(0.,-1.,0.));
#167 = DIRECTION('',(0.,0.,1.));
#168 = ADVANCED_FACE('',(#169),#187,.T.);
#169 = FACE_BOUND('',#170,.T.);
#170 = EDGE_LOOP('',(#171,#179,#180,#181));
#171 = ORIENTED_EDGE('',*,*,#172,.F.);
#172 = EDGE_CURVE('',#54,#173,#175,.T.);
#173 = VERTEX_POINT('',#174);
#174 = CARTESIAN_POINT('',(-1.7,2.65,6.5));
#175 = LINE('',#176,#177);
#176 = CARTESIAN_POINT('',(-1.818604651163,2.768604651163,6.697674418605
    ));
#177 = VECTOR('',#178,1.);
#178 = DIRECTION('',(0.457495710998,-0.457495710998,-0.762492851663));
#179 = ORIENTED_EDGE('',*,*,#53,.T.);
#180 = ORIENTED_EDGE('',*,*,#158,.T.);
#181 = ORIENTED_EDGE('',*,*,#182,.F.);
#182 = EDGE_CURVE('',#173,#151,#183,.T.);
#183 = LINE('',#184,#185);
#184 = CARTESIAN_POINT('',(-1.7,2.65,6.5));
#185 = VECTOR('',#186,1.);
#186 = DIRECTION('',(0.,-1.,0.));
#187 = PLANE('',#188);
#188 = AXIS2_PLACEMENT_3D('',#189,#190,#191);
#189 = CARTESIAN_POINT('',(-1.85,2.65,6.75));
#190 = DIRECTION('',(0.857492925713,0.,0.514495755428));
#191 = DIRECTION('',(0.,-1.,0.));
#192 = ADVANCED_FACE('',(#193),#244,.F.);
#193 = FACE_BOUND('',#194,.F.);
#194 = EDGE_LOOP('',(#195,#205,#211,#212,#213,#222,#230,#238));
#195 = ORIENTED_EDGE('',*,*,#196,.F.);
#196 = EDGE_CURVE('',#197,#199,#201,.T.);
#197 = VERTEX_POINT('',#198);
#198 = CARTESIAN_POINT('',(-2.45,2.9,0.));
#199 = VERTEX_POINT('',#200);
#200 = CARTESIAN_POINT('',(-2.45,-2.35,0.));
#201 = LINE('',#202,#203);
#202 = CARTESIAN_POINT('',(-2.45,3.4,0.));
#203 = VECTOR('',#204,1.);
#204 = DIRECTION('',(0.,-1.,0.));
#205 = ORIENTED_EDGE('',*,*,#206,.T.);
#206 = EDGE_CURVE('',#197,#111,#207,.T.);
#207 = LINE('',#208,#209);
#208 = CARTESIAN_POINT('',(-2.45,2.9,0.));
#209 = VECTOR('',#210,1.);
#210 = DIRECTION('',(0.,0.,1.));
#211 = ORIENTED_EDGE('',*,*,#119,.T.);
#212 = ORIENTED_EDGE('',*,*,#134,.T.);
#213 = ORIENTED_EDGE('',*,*,#214,.T.);
#214 = EDGE_CURVE('',#135,#215,#217,.T.);
#215 = VERTEX_POINT('',#216);
#216 = CARTESIAN_POINT('',(-2.45,-1.549999999998,4.749999999997));
#217 = CIRCLE('',#218,0.849999999998);
#218 = AXIS2_PLACEMENT_3D('',#219,#220,#221);
#219 = CARTESIAN_POINT('',(-2.45,-0.7,4.749999999998));
#220 = DIRECTION('',(-1.,0.,0.));
#221 = DIRECTION('',(0.,1.,0.));
#222 = ORIENTED_EDGE('',*,*,#223,.T.);
#223 = EDGE_CURVE('',#215,#224,#226,.T.);
#224 = VERTEX_POINT('',#225);
#225 = CARTESIAN_POINT('',(-2.45,-1.549999999998,7.));
#226 = LINE('',#227,#228);
#227 = CARTESIAN_POINT('',(-2.45,-1.549999999998,3.5));
#228 = VECTOR('',#229,1.);
#229 = DIRECTION('',(0.,0.,1.));
#230 = ORIENTED_EDGE('',*,*,#231,.T.);
#231 = EDGE_CURVE('',#224,#232,#234,.T.);
#232 = VERTEX_POINT('',#233);
#233 = CARTESIAN_POINT('',(-2.45,-2.35,7.));
#234 = LINE('',#235,#236);
#235 = CARTESIAN_POINT('',(-2.45,3.4,7.));
#236 = VECTOR('',#237,1.);
#237 = DIRECTION('',(0.,-1.,0.));
#238 = ORIENTED_EDGE('',*,*,#239,.F.);
#239 = EDGE_CURVE('',#199,#232,#240,.T.);
#240 = LINE('',#241,#242);
#241 = CARTESIAN_POINT('',(-2.45,-2.35,0.));
#242 = VECTOR('',#243,1.);
#243 = DIRECTION('',(0.,0.,1.));
#244 = PLANE('',#245);
#245 = AXIS2_PLACEMENT_3D('',#246,#247,#248);
#246 = CARTESIAN_POINT('',(-2.45,3.4,0.));
#247 = DIRECTION('',(1.,0.,0.));
#248 = DIRECTION('',(0.,-1.,0.));
#249 = ADVANCED_FACE('',(#250),#268,.T.);
#250 = FACE_BOUND('',#251,.F.);
#251 = EDGE_LOOP('',(#252,#253,#254,#262));
#252 = ORIENTED_EDGE('',*,*,#172,.F.);
#253 = ORIENTED_EDGE('',*,*,#61,.T.);
#254 = ORIENTED_EDGE('',*,*,#255,.T.);
#255 = EDGE_CURVE('',#62,#256,#258,.T.);
#256 = VERTEX_POINT('',#257);
#257 = CARTESIAN_POINT('',(4.2,2.65,6.5));
#258 = LINE('',#259,#260);
#259 = CARTESIAN_POINT('',(3.701162790698,2.151162790698,5.668604651163)
  );
#260 = VECTOR('',#261,1.);
#261 = DIRECTION('',(-0.457495710998,-0.457495710998,-0.762492851663));
#262 = ORIENTED_EDGE('',*,*,#263,.F.);
#263 = EDGE_CURVE('',#173,#256,#264,.T.);
#264 = LINE('',#265,#266);
#265 = CARTESIAN_POINT('',(-1.7,2.65,6.5));
#266 = VECTOR('',#267,1.);
#267 = DIRECTION('',(1.,0.,0.));
#268 = PLANE('',#269);
#269 = AXIS2_PLACEMENT_3D('',#270,#271,#272);
#270 = CARTESIAN_POINT('',(-1.7,2.8,6.75));
#271 = DIRECTION('',(0.,-0.857492925713,0.514495755428));
#272 = DIRECTION('',(-1.,-0.,-0.));
#273 = ADVANCED_FACE('',(#274),#293,.T.);
#274 = FACE_BOUND('',#275,.F.);
#275 = EDGE_LOOP('',(#276,#285,#291,#292));
#276 = ORIENTED_EDGE('',*,*,#277,.T.);
#277 = EDGE_CURVE('',#197,#278,#280,.T.);
#278 = VERTEX_POINT('',#279);
#279 = CARTESIAN_POINT('',(-1.95,3.4,0.));
#280 = CIRCLE('',#281,0.5);
#281 = AXIS2_PLACEMENT_3D('',#282,#283,#284);
#282 = CARTESIAN_POINT('',(-1.95,2.9,0.));
#283 = DIRECTION('',(-0.,-0.,-1.));
#284 = DIRECTION('',(0.,-1.,0.));
#285 = ORIENTED_EDGE('',*,*,#286,.T.);
#286 = EDGE_CURVE('',#278,#103,#287,.T.);
#287 = LINE('',#288,#289);
#288 = CARTESIAN_POINT('',(-1.95,3.4,0.));
#289 = VECTOR('',#290,1.);
#290 = DIRECTION('',(0.,0.,1.));
#291 = ORIENTED_EDGE('',*,*,#110,.F.);
#292 = ORIENTED_EDGE('',*,*,#206,.F.);
#293 = CYLINDRICAL_SURFACE('',#294,0.5);
#294 = AXIS2_PLACEMENT_3D('',#295,#296,#297);
#295 = CARTESIAN_POINT('',(-1.95,2.9,0.));
#296 = DIRECTION('',(0.,0.,1.));
#297 = DIRECTION('',(-1.,0.,0.));
#298 = ADVANCED_FACE('',(#299),#317,.F.);
#299 = FACE_BOUND('',#300,.F.);
#300 = EDGE_LOOP('',(#301,#302,#303,#311));
#301 = ORIENTED_EDGE('',*,*,#255,.F.);
#302 = ORIENTED_EDGE('',*,*,#69,.T.);
#303 = ORIENTED_EDGE('',*,*,#304,.T.);
#304 = EDGE_CURVE('',#70,#305,#307,.T.);
#305 = VERTEX_POINT('',#306);
#306 = CARTESIAN_POINT('',(4.2,-0.7,6.5));
#307 = LINE('',#308,#309);
#308 = CARTESIAN_POINT('',(2.483823529412,-0.7,3.639705882353));
#309 = VECTOR('',#310,1.);
#310 = DIRECTION('',(-0.514495755428,-0.,-0.857492925713));
#311 = ORIENTED_EDGE('',*,*,#312,.F.);
#312 = EDGE_CURVE('',#256,#305,#313,.T.);
#313 = LINE('',#314,#315);
#314 = CARTESIAN_POINT('',(4.2,2.65,6.5));
#315 = VECTOR('',#316,1.);
#316 = DIRECTION('',(0.,-1.,0.));
#317 = PLANE('',#318);
#318 = AXIS2_PLACEMENT_3D('',#319,#320,#321);
#319 = CARTESIAN_POINT('',(4.35,2.65,6.75));
#320 = DIRECTION('',(0.857492925713,0.,-0.514495755428));
#321 = DIRECTION('',(0.,-1.,0.));
#322 = ADVANCED_FACE('',(#323),#405,.F.);
#323 = FACE_BOUND('',#324,.F.);
#324 = EDGE_LOOP('',(#325,#335,#341,#342,#343,#351,#359,#367,#375,#383,
    #391,#399));
#325 = ORIENTED_EDGE('',*,*,#326,.F.);
#326 = EDGE_CURVE('',#327,#329,#331,.T.);
#327 = VERTEX_POINT('',#328);
#328 = CARTESIAN_POINT('',(4.45,3.4,0.));
#329 = VERTEX_POINT('',#330);
#330 = CARTESIAN_POINT('',(3.45,3.4,0.));
#331 = LINE('',#332,#333);
#332 = CARTESIAN_POINT('',(4.95,3.4,0.));
#333 = VECTOR('',#334,1.);
#334 = DIRECTION('',(-1.,0.,0.));
#335 = ORIENTED_EDGE('',*,*,#336,.T.);
#336 = EDGE_CURVE('',#327,#94,#337,.T.);
#337 = LINE('',#338,#339);
#338 = CARTESIAN_POINT('',(4.45,3.4,0.));
#339 = VECTOR('',#340,1.);
#340 = DIRECTION('',(0.,0.,1.));
#341 = ORIENTED_EDGE('',*,*,#102,.T.);
#342 = ORIENTED_EDGE('',*,*,#286,.F.);
#343 = ORIENTED_EDGE('',*,*,#344,.F.);
#344 = EDGE_CURVE('',#345,#278,#347,.T.);
#345 = VERTEX_POINT('',#346);
#346 = CARTESIAN_POINT('',(-0.95,3.4,0.));
#347 = LINE('',#348,#349);
#348 = CARTESIAN_POINT('',(4.95,3.4,0.));
#349 = VECTOR('',#350,1.);
#350 = DIRECTION('',(-1.,0.,0.));
#351 = ORIENTED_EDGE('',*,*,#352,.F.);
#352 = EDGE_CURVE('',#353,#345,#355,.T.);
#353 = VERTEX_POINT('',#354);
#354 = CARTESIAN_POINT('',(-0.95,3.4,0.9));
#355 = LINE('',#356,#357);
#356 = CARTESIAN_POINT('',(-0.95,3.4,0.9));
#357 = VECTOR('',#358,1.);
#358 = DIRECTION('',(0.,0.,-1.));
#359 = ORIENTED_EDGE('',*,*,#360,.F.);
#360 = EDGE_CURVE('',#361,#353,#363,.T.);
#361 = VERTEX_POINT('',#362);
#362 = CARTESIAN_POINT('',(0.95,3.4,0.9));
#363 = LINE('',#364,#365);
#364 = CARTESIAN_POINT('',(0.95,3.4,0.9));
#365 = VECTOR('',#366,1.);
#366 = DIRECTION('',(-1.,-0.,-0.));
#367 = ORIENTED_EDGE('',*,*,#368,.T.);
#368 = EDGE_CURVE('',#361,#369,#371,.T.);
#369 = VERTEX_POINT('',#370);
#370 = CARTESIAN_POINT('',(0.95,3.4,0.));
#371 = LINE('',#372,#373);
#372 = CARTESIAN_POINT('',(0.95,3.4,0.9));
#373 = VECTOR('',#374,1.);
#374 = DIRECTION('',(0.,0.,-1.));
#375 = ORIENTED_EDGE('',*,*,#376,.F.);
#376 = EDGE_CURVE('',#377,#369,#379,.T.);
#377 = VERTEX_POINT('',#378);
#378 = CARTESIAN_POINT('',(1.55,3.4,0.));
#379 = LINE('',#380,#381);
#380 = CARTESIAN_POINT('',(4.95,3.4,0.));
#381 = VECTOR('',#382,1.);
#382 = DIRECTION('',(-1.,0.,0.));
#383 = ORIENTED_EDGE('',*,*,#384,.F.);
#384 = EDGE_CURVE('',#385,#377,#387,.T.);
#385 = VERTEX_POINT('',#386);
#386 = CARTESIAN_POINT('',(1.55,3.4,0.9));
#387 = LINE('',#388,#389);
#388 = CARTESIAN_POINT('',(1.55,3.4,0.9));
#389 = VECTOR('',#390,1.);
#390 = DIRECTION('',(0.,0.,-1.));
#391 = ORIENTED_EDGE('',*,*,#392,.F.);
#392 = EDGE_CURVE('',#393,#385,#395,.T.);
#393 = VERTEX_POINT('',#394);
#394 = CARTESIAN_POINT('',(3.45,3.4,0.9));
#395 = LINE('',#396,#397);
#396 = CARTESIAN_POINT('',(3.45,3.4,0.9));
#397 = VECTOR('',#398,1.);
#398 = DIRECTION('',(-1.,-0.,-0.));
#399 = ORIENTED_EDGE('',*,*,#400,.T.);
#400 = EDGE_CURVE('',#393,#329,#401,.T.);
#401 = LINE('',#402,#403);
#402 = CARTESIAN_POINT('',(3.45,3.4,0.9));
#403 = VECTOR('',#404,1.);
#404 = DIRECTION('',(0.,0.,-1.));
#405 = PLANE('',#406);
#406 = AXIS2_PLACEMENT_3D('',#407,#408,#409);
#407 = CARTESIAN_POINT('',(4.95,3.4,0.));
#408 = DIRECTION('',(0.,-1.,0.));
#409 = DIRECTION('',(-1.,0.,0.));
#410 = ADVANCED_FACE('',(#411),#437,.T.);
#411 = FACE_BOUND('',#412,.T.);
#412 = EDGE_LOOP('',(#413,#421,#429,#435,#436));
#413 = ORIENTED_EDGE('',*,*,#414,.T.);
#414 = EDGE_CURVE('',#305,#415,#417,.T.);
#415 = VERTEX_POINT('',#416);
#416 = CARTESIAN_POINT('',(4.2,-0.7,3.9));
#417 = LINE('',#418,#419);
#418 = CARTESIAN_POINT('',(4.2,-0.7,4.067949337881));
#419 = VECTOR('',#420,1.);
#420 = DIRECTION('',(0.,0.,-1.));
#421 = ORIENTED_EDGE('',*,*,#422,.T.);
#422 = EDGE_CURVE('',#415,#423,#425,.T.);
#423 = VERTEX_POINT('',#424);
#424 = CARTESIAN_POINT('',(4.95,-0.7,3.9));
#425 = LINE('',#426,#427);
#426 = CARTESIAN_POINT('',(-5.,-0.7,3.9));
#427 = VECTOR('',#428,1.);
#428 = DIRECTION('',(1.,0.,0.));
#429 = ORIENTED_EDGE('',*,*,#430,.T.);
#430 = EDGE_CURVE('',#423,#78,#431,.T.);
#431 = LINE('',#432,#433);
#432 = CARTESIAN_POINT('',(4.95,-0.7,1.95));
#433 = VECTOR('',#434,1.);
#434 = DIRECTION('',(0.,0.,1.));
#435 = ORIENTED_EDGE('',*,*,#77,.F.);
#436 = ORIENTED_EDGE('',*,*,#304,.T.);
#437 = PLANE('',#438);
#438 = AXIS2_PLACEMENT_3D('',#439,#440,#441);
#439 = CARTESIAN_POINT('',(-5.,-0.7,3.9));
#440 = DIRECTION('',(0.,-1.,0.));
#441 = DIRECTION('',(0.,0.,1.));
#442 = ADVANCED_FACE('',(#443),#462,.T.);
#443 = FACE_BOUND('',#444,.T.);
#444 = EDGE_LOOP('',(#445,#454,#455,#456));
#445 = ORIENTED_EDGE('',*,*,#446,.T.);
#446 = EDGE_CURVE('',#447,#327,#449,.T.);
#447 = VERTEX_POINT('',#448);
#448 = CARTESIAN_POINT('',(4.95,2.9,0.));
#449 = CIRCLE('',#450,0.5);
#450 = AXIS2_PLACEMENT_3D('',#451,#452,#453);
#451 = CARTESIAN_POINT('',(4.45,2.9,0.));
#452 = DIRECTION('',(-0.,0.,1.));
#453 = DIRECTION('',(0.,-1.,0.));
#454 = ORIENTED_EDGE('',*,*,#336,.T.);
#455 = ORIENTED_EDGE('',*,*,#93,.F.);
#456 = ORIENTED_EDGE('',*,*,#457,.F.);
#457 = EDGE_CURVE('',#447,#86,#458,.T.);
#458 = LINE('',#459,#460);
#459 = CARTESIAN_POINT('',(4.95,2.9,0.));
#460 = VECTOR('',#461,1.);
#461 = DIRECTION('',(0.,0.,1.));
#462 = CYLINDRICAL_SURFACE('',#463,0.5);
#463 = AXIS2_PLACEMENT_3D('',#464,#465,#466);
#464 = CARTESIAN_POINT('',(4.45,2.9,0.));
#465 = DIRECTION('',(0.,0.,1.));
#466 = DIRECTION('',(1.,0.,0.));
#467 = ADVANCED_FACE('',(#468),#512,.F.);
#468 = FACE_BOUND('',#469,.F.);
#469 = EDGE_LOOP('',(#470,#478,#486,#494,#502,#509,#510,#511));
#470 = ORIENTED_EDGE('',*,*,#471,.F.);
#471 = EDGE_CURVE('',#472,#447,#474,.T.);
#472 = VERTEX_POINT('',#473);
#473 = CARTESIAN_POINT('',(4.95,-2.35,0.));
#474 = LINE('',#475,#476);
#475 = CARTESIAN_POINT('',(4.95,-2.35,0.));
#476 = VECTOR('',#477,1.);
#477 = DIRECTION('',(0.,1.,0.));
#478 = ORIENTED_EDGE('',*,*,#479,.T.);
#479 = EDGE_CURVE('',#472,#480,#482,.T.);
#480 = VERTEX_POINT('',#481);
#481 = CARTESIAN_POINT('',(4.95,-2.35,7.));
#482 = LINE('',#483,#484);
#483 = CARTESIAN_POINT('',(4.95,-2.35,0.));
#484 = VECTOR('',#485,1.);
#485 = DIRECTION('',(0.,0.,1.));
#486 = ORIENTED_EDGE('',*,*,#487,.T.);
#487 = EDGE_CURVE('',#480,#488,#490,.T.);
#488 = VERTEX_POINT('',#489);
#489 = CARTESIAN_POINT('',(4.95,-1.549999999998,7.));
#490 = LINE('',#491,#492);
#491 = CARTESIAN_POINT('',(4.95,-2.35,7.));
#492 = VECTOR('',#493,1.);
#493 = DIRECTION('',(0.,1.,0.));
#494 = ORIENTED_EDGE('',*,*,#495,.T.);
#495 = EDGE_CURVE('',#488,#496,#498,.T.);
#496 = VERTEX_POINT('',#497);
#497 = CARTESIAN_POINT('',(4.95,-1.549999999998,4.749999999997));
#498 = LINE('',#499,#500);
#499 = CARTESIAN_POINT('',(4.95,-1.549999999998,3.5));
#500 = VECTOR('',#501,1.);
#501 = DIRECTION('',(0.,0.,-1.));
#502 = ORIENTED_EDGE('',*,*,#503,.F.);
#503 = EDGE_CURVE('',#423,#496,#504,.T.);
#504 = CIRCLE('',#505,0.849999999998);
#505 = AXIS2_PLACEMENT_3D('',#506,#507,#508);
#506 = CARTESIAN_POINT('',(4.95,-0.7,4.749999999998));
#507 = DIRECTION('',(-1.,0.,0.));
#508 = DIRECTION('',(0.,1.,0.));
#509 = ORIENTED_EDGE('',*,*,#430,.T.);
#510 = ORIENTED_EDGE('',*,*,#85,.T.);
#511 = ORIENTED_EDGE('',*,*,#457,.F.);
#512 = PLANE('',#513);
#513 = AXIS2_PLACEMENT_3D('',#514,#515,#516);
#514 = CARTESIAN_POINT('',(4.95,-2.35,0.));
#515 = DIRECTION('',(-1.,0.,0.));
#516 = DIRECTION('',(0.,1.,0.));
#517 = ADVANCED_FACE('',(#518),#585,.T.);
#518 = FACE_BOUND('',#519,.T.);
#519 = EDGE_LOOP('',(#520,#521,#530,#538,#546,#554,#562,#570,#578,#584)
  );
#520 = ORIENTED_EDGE('',*,*,#150,.T.);
#521 = ORIENTED_EDGE('',*,*,#522,.T.);
#522 = EDGE_CURVE('',#143,#523,#525,.T.);
#523 = VERTEX_POINT('',#524);
#524 = CARTESIAN_POINT('',(-1.7,-1.549999999998,4.749999999997));
#525 = CIRCLE('',#526,0.849999999998);
#526 = AXIS2_PLACEMENT_3D('',#527,#528,#529);
#527 = CARTESIAN_POINT('',(-1.7,-0.7,4.749999999998));
#528 = DIRECTION('',(-1.,0.,0.));
#529 = DIRECTION('',(0.,1.,0.));
#530 = ORIENTED_EDGE('',*,*,#531,.T.);
#531 = EDGE_CURVE('',#523,#532,#534,.T.);
#532 = VERTEX_POINT('',#533);
#533 = CARTESIAN_POINT('',(-1.7,-1.549999999998,7.));
#534 = LINE('',#535,#536);
#535 = CARTESIAN_POINT('',(-1.7,-1.549999999998,5.617949337881));
#536 = VECTOR('',#537,1.);
#537 = DIRECTION('',(0.,0.,1.));
#538 = ORIENTED_EDGE('',*,*,#539,.T.);
#539 = EDGE_CURVE('',#532,#540,#542,.T.);
#540 = VERTEX_POINT('',#541);
#541 = CARTESIAN_POINT('',(-1.7,-1.6,7.));
#542 = LINE('',#543,#544);
#543 = CARTESIAN_POINT('',(-1.7,2.65,7.));
#544 = VECTOR('',#545,1.);
#545 = DIRECTION('',(0.,-1.,0.));
#546 = ORIENTED_EDGE('',*,*,#547,.T.);
#547 = EDGE_CURVE('',#540,#548,#550,.T.);
#548 = VERTEX_POINT('',#549);
#549 = CARTESIAN_POINT('',(-1.7,-1.6,1.9));
#550 = LINE('',#551,#552);
#551 = CARTESIAN_POINT('',(-1.7,-1.6,7.));
#552 = VECTOR('',#553,1.);
#553 = DIRECTION('',(0.,0.,-1.));
#554 = ORIENTED_EDGE('',*,*,#555,.T.);
#555 = EDGE_CURVE('',#548,#556,#558,.T.);
#556 = VERTEX_POINT('',#557);
#557 = CARTESIAN_POINT('',(-1.7,0.5,1.9));
#558 = LINE('',#559,#560);
#559 = CARTESIAN_POINT('',(-1.7,-1.6,1.9));
#560 = VECTOR('',#561,1.);
#561 = DIRECTION('',(0.,1.,0.));
#562 = ORIENTED_EDGE('',*,*,#563,.T.);
#563 = EDGE_CURVE('',#556,#564,#566,.T.);
#564 = VERTEX_POINT('',#565);
#565 = CARTESIAN_POINT('',(-1.7,0.875277674973,1.25));
#566 = LINE('',#567,#568);
#567 = CARTESIAN_POINT('',(-1.7,0.5,1.9));
#568 = VECTOR('',#569,1.);
#569 = DIRECTION('',(0.,0.5,-0.866025403784));
#570 = ORIENTED_EDGE('',*,*,#571,.T.);
#571 = EDGE_CURVE('',#564,#572,#574,.T.);
#572 = VERTEX_POINT('',#573);
#573 = CARTESIAN_POINT('',(-1.7,2.65,1.25));
#574 = LINE('',#575,#576);
#575 = CARTESIAN_POINT('',(-1.7,0.875277674973,1.25));
#576 = VECTOR('',#577,1.);
#577 = DIRECTION('',(0.,1.,0.));
#578 = ORIENTED_EDGE('',*,*,#579,.T.);
#579 = EDGE_CURVE('',#572,#173,#580,.T.);
#580 = LINE('',#581,#582);
#581 = CARTESIAN_POINT('',(-1.7,2.65,1.25));
#582 = VECTOR('',#583,1.);
#583 = DIRECTION('',(0.,0.,1.));
#584 = ORIENTED_EDGE('',*,*,#182,.T.);
#585 = PLANE('',#586);
#586 = AXIS2_PLACEMENT_3D('',#587,#588,#589);
#587 = CARTESIAN_POINT('',(-1.7,0.598118601855,4.235898675762));
#588 = DIRECTION('',(1.,0.,0.));
#589 = DIRECTION('',(0.,0.,1.));
#590 = ADVANCED_FACE('',(#591),#602,.F.);
#591 = FACE_BOUND('',#592,.T.);
#592 = EDGE_LOOP('',(#593,#594,#600,#601));
#593 = ORIENTED_EDGE('',*,*,#214,.T.);
#594 = ORIENTED_EDGE('',*,*,#595,.T.);
#595 = EDGE_CURVE('',#215,#523,#596,.T.);
#596 = LINE('',#597,#598);
#597 = CARTESIAN_POINT('',(-5.,-1.549999999998,4.749999999997));
#598 = VECTOR('',#599,1.);
#599 = DIRECTION('',(1.,0.,0.));
#600 = ORIENTED_EDGE('',*,*,#522,.F.);
#601 = ORIENTED_EDGE('',*,*,#142,.F.);
#602 = CYLINDRICAL_SURFACE('',#603,0.849999999998);
#603 = AXIS2_PLACEMENT_3D('',#604,#605,#606);
#604 = CARTESIAN_POINT('',(-5.,-0.7,4.749999999998));
#605 = DIRECTION('',(-1.,-0.,-0.));
#606 = DIRECTION('',(0.,1.,0.));
#607 = ADVANCED_FACE('',(#608),#627,.F.);
#608 = FACE_BOUND('',#609,.F.);
#609 = EDGE_LOOP('',(#610,#611,#619,#625,#626));
#610 = ORIENTED_EDGE('',*,*,#196,.T.);
#611 = ORIENTED_EDGE('',*,*,#612,.T.);
#612 = EDGE_CURVE('',#199,#613,#615,.T.);
#613 = VERTEX_POINT('',#614);
#614 = CARTESIAN_POINT('',(-0.95,-2.35,0.));
#615 = LINE('',#616,#617);
#616 = CARTESIAN_POINT('',(-2.45,-2.35,0.));
#617 = VECTOR('',#618,1.);
#618 = DIRECTION('',(1.,0.,0.));
#619 = ORIENTED_EDGE('',*,*,#620,.F.);
#620 = EDGE_CURVE('',#345,#613,#621,.T.);
#621 = LINE('',#622,#623);
#622 = CARTESIAN_POINT('',(-0.95,3.4,0.));
#623 = VECTOR('',#624,1.);
#624 = DIRECTION('',(0.,-1.,0.));
#625 = ORIENTED_EDGE('',*,*,#344,.T.);
#626 = ORIENTED_EDGE('',*,*,#277,.F.);
#627 = PLANE('',#628);
#628 = AXIS2_PLACEMENT_3D('',#629,#630,#631);
#629 = CARTESIAN_POINT('',(1.25,0.525,0.));
#630 = DIRECTION('',(0.,0.,1.));
#631 = DIRECTION('',(1.,0.,0.));
#632 = ADVANCED_FACE('',(#633),#804,.F.);
#633 = FACE_BOUND('',#634,.F.);
#634 = EDGE_LOOP('',(#635,#636,#637,#645,#653,#661,#669,#677,#686,#694,
    #703,#711,#719,#727,#735,#741,#742,#750,#758,#766,#774,#782,#790,
    #798));
#635 = ORIENTED_EDGE('',*,*,#612,.F.);
#636 = ORIENTED_EDGE('',*,*,#239,.T.);
#637 = ORIENTED_EDGE('',*,*,#638,.T.);
#638 = EDGE_CURVE('',#232,#639,#641,.T.);
#639 = VERTEX_POINT('',#640);
#640 = CARTESIAN_POINT('',(-0.8,-2.35,7.));
#641 = LINE('',#642,#643);
#642 = CARTESIAN_POINT('',(-2.45,-2.35,7.));
#643 = VECTOR('',#644,1.);
#644 = DIRECTION('',(1.,0.,0.));
#645 = ORIENTED_EDGE('',*,*,#646,.F.);
#646 = EDGE_CURVE('',#647,#639,#649,.T.);
#647 = VERTEX_POINT('',#648);
#648 = CARTESIAN_POINT('',(-0.8,-2.35,6.8));
#649 = LINE('',#650,#651);
#650 = CARTESIAN_POINT('',(-0.8,-2.35,3.4));
#651 = VECTOR('',#652,1.);
#652 = DIRECTION('',(0.,0.,1.));
#653 = ORIENTED_EDGE('',*,*,#654,.F.);
#654 = EDGE_CURVE('',#655,#647,#657,.T.);
#655 = VERTEX_POINT('',#656);
#656 = CARTESIAN_POINT('',(-0.4,-2.35,6.4));
#657 = LINE('',#658,#659);
#658 = CARTESIAN_POINT('',(0.6875,-2.35,5.3125));
#659 = VECTOR('',#660,1.);
#660 = DIRECTION('',(-0.707106781187,0.,0.707106781187));
#661 = ORIENTED_EDGE('',*,*,#662,.F.);
#662 = EDGE_CURVE('',#663,#655,#665,.T.);
#663 = VERTEX_POINT('',#664);
#664 = CARTESIAN_POINT('',(-0.8,-2.35,6.));
#665 = LINE('',#666,#667);
#666 = CARTESIAN_POINT('',(-2.7125,-2.35,4.0875));
#667 = VECTOR('',#668,1.);
#668 = DIRECTION('',(0.707106781187,0.,0.707106781187));
#669 = ORIENTED_EDGE('',*,*,#670,.F.);
#670 = EDGE_CURVE('',#671,#663,#673,.T.);
#671 = VERTEX_POINT('',#672);
#672 = CARTESIAN_POINT('',(-0.8,-2.35,3.9));
#673 = LINE('',#674,#675);
#674 = CARTESIAN_POINT('',(-0.8,-2.35,1.95));
#675 = VECTOR('',#676,1.);
#676 = DIRECTION('',(0.,0.,1.));
#677 = ORIENTED_EDGE('',*,*,#678,.F.);
#678 = EDGE_CURVE('',#679,#671,#681,.T.);
#679 = VERTEX_POINT('',#680);
#680 = CARTESIAN_POINT('',(-0.1,-2.35,3.2));
#681 = CIRCLE('',#682,0.7);
#682 = AXIS2_PLACEMENT_3D('',#683,#684,#685);
#683 = CARTESIAN_POINT('',(-0.1,-2.35,3.9));
#684 = DIRECTION('',(0.,1.,-2.2E-16));
#685 = DIRECTION('',(1.,0.,0.));
#686 = ORIENTED_EDGE('',*,*,#687,.T.);
#687 = EDGE_CURVE('',#679,#688,#690,.T.);
#688 = VERTEX_POINT('',#689);
#689 = CARTESIAN_POINT('',(2.6,-2.35,3.2));
#690 = LINE('',#691,#692);
#691 = CARTESIAN_POINT('',(-0.5,-2.35,3.2));
#692 = VECTOR('',#693,1.);
#693 = DIRECTION('',(1.,0.,0.));
#694 = ORIENTED_EDGE('',*,*,#695,.F.);
#695 = EDGE_CURVE('',#696,#688,#698,.T.);
#696 = VERTEX_POINT('',#697);
#697 = CARTESIAN_POINT('',(3.3,-2.35,3.9));
#698 = CIRCLE('',#699,0.7);
#699 = AXIS2_PLACEMENT_3D('',#700,#701,#702);
#700 = CARTESIAN_POINT('',(2.6,-2.35,3.9));
#701 = DIRECTION('',(0.,1.,-2.2E-16));
#702 = DIRECTION('',(1.,0.,0.));
#703 = ORIENTED_EDGE('',*,*,#704,.T.);
#704 = EDGE_CURVE('',#696,#705,#707,.T.);
#705 = VERTEX_POINT('',#706);
#706 = CARTESIAN_POINT('',(3.3,-2.35,6.));
#707 = LINE('',#708,#709);
#708 = CARTESIAN_POINT('',(3.3,-2.35,1.95));
#709 = VECTOR('',#710,1.);
#710 = DIRECTION('',(0.,0.,1.));
#711 = ORIENTED_EDGE('',*,*,#712,.T.);
#712 = EDGE_CURVE('',#705,#713,#715,.T.);
#713 = VERTEX_POINT('',#714);
#714 = CARTESIAN_POINT('',(2.9,-2.35,6.4));
#715 = LINE('',#716,#717);
#716 = CARTESIAN_POINT('',(3.3625,-2.35,5.9375));
#717 = VECTOR('',#718,1.);
#718 = DIRECTION('',(-0.707106781187,0.,0.707106781187));
#719 = ORIENTED_EDGE('',*,*,#720,.T.);
#720 = EDGE_CURVE('',#713,#721,#723,.T.);
#721 = VERTEX_POINT('',#722);
#722 = CARTESIAN_POINT('',(3.3,-2.35,6.8));
#723 = LINE('',#724,#725);
#724 = CARTESIAN_POINT('',(-3.75E-02,-2.35,3.4625));
#725 = VECTOR('',#726,1.);
#726 = DIRECTION('',(0.707106781187,0.,0.707106781187));
#727 = ORIENTED_EDGE('',*,*,#728,.T.);
#728 = EDGE_CURVE('',#721,#729,#731,.T.);
#729 = VERTEX_POINT('',#730);
#730 = CARTESIAN_POINT('',(3.3,-2.35,7.));
#731 = LINE('',#732,#733);
#732 = CARTESIAN_POINT('',(3.3,-2.35,3.4));
#733 = VECTOR('',#734,1.);
#734 = DIRECTION('',(0.,0.,1.));
#735 = ORIENTED_EDGE('',*,*,#736,.T.);
#736 = EDGE_CURVE('',#729,#480,#737,.T.);
#737 = LINE('',#738,#739);
#738 = CARTESIAN_POINT('',(-2.45,-2.35,7.));
#739 = VECTOR('',#740,1.);
#740 = DIRECTION('',(1.,0.,0.));
#741 = ORIENTED_EDGE('',*,*,#479,.F.);
#742 = ORIENTED_EDGE('',*,*,#743,.F.);
#743 = EDGE_CURVE('',#744,#472,#746,.T.);
#744 = VERTEX_POINT('',#745);
#745 = CARTESIAN_POINT('',(3.45,-2.35,0.));
#746 = LINE('',#747,#748);
#747 = CARTESIAN_POINT('',(-2.45,-2.35,0.));
#748 = VECTOR('',#749,1.);
#749 = DIRECTION('',(1.,0.,0.));
#750 = ORIENTED_EDGE('',*,*,#751,.T.);
#751 = EDGE_CURVE('',#744,#752,#754,.T.);
#752 = VERTEX_POINT('',#753);
#753 = CARTESIAN_POINT('',(3.45,-2.35,0.587106270774));
#754 = LINE('',#755,#756);
#755 = CARTESIAN_POINT('',(3.45,-2.35,0.));
#756 = VECTOR('',#757,1.);
#757 = DIRECTION('',(0.,0.,1.));
#758 = ORIENTED_EDGE('',*,*,#759,.T.);
#759 = EDGE_CURVE('',#752,#760,#762,.T.);
#760 = VERTEX_POINT('',#761);
#761 = CARTESIAN_POINT('',(1.55,-2.35,0.587106270774));
#762 = LINE('',#763,#764);
#763 = CARTESIAN_POINT('',(3.45,-2.35,0.587106270774));
#764 = VECTOR('',#765,1.);
#765 = DIRECTION('',(-1.,-0.,-0.));
#766 = ORIENTED_EDGE('',*,*,#767,.F.);
#767 = EDGE_CURVE('',#768,#760,#770,.T.);
#768 = VERTEX_POINT('',#769);
#769 = CARTESIAN_POINT('',(1.55,-2.35,0.));
#770 = LINE('',#771,#772);
#771 = CARTESIAN_POINT('',(1.55,-2.35,0.));
#772 = VECTOR('',#773,1.);
#773 = DIRECTION('',(0.,0.,1.));
#774 = ORIENTED_EDGE('',*,*,#775,.F.);
#775 = EDGE_CURVE('',#776,#768,#778,.T.);
#776 = VERTEX_POINT('',#777);
#777 = CARTESIAN_POINT('',(0.95,-2.35,0.));
#778 = LINE('',#779,#780);
#779 = CARTESIAN_POINT('',(-2.45,-2.35,0.));
#780 = VECTOR('',#781,1.);
#781 = DIRECTION('',(1.,0.,0.));
#782 = ORIENTED_EDGE('',*,*,#783,.T.);
#783 = EDGE_CURVE('',#776,#784,#786,.T.);
#784 = VERTEX_POINT('',#785);
#785 = CARTESIAN_POINT('',(0.95,-2.35,0.587106270774));
#786 = LINE('',#787,#788);
#787 = CARTESIAN_POINT('',(0.95,-2.35,0.));
#788 = VECTOR('',#789,1.);
#789 = DIRECTION('',(0.,0.,1.));
#790 = ORIENTED_EDGE('',*,*,#791,.T.);
#791 = EDGE_CURVE('',#784,#792,#794,.T.);
#792 = VERTEX_POINT('',#793);
#793 = CARTESIAN_POINT('',(-0.95,-2.35,0.587106270774));
#794 = LINE('',#795,#796);
#795 = CARTESIAN_POINT('',(0.95,-2.35,0.587106270774));
#796 = VECTOR('',#797,1.);
#797 = DIRECTION('',(-1.,-0.,-0.));
#798 = ORIENTED_EDGE('',*,*,#799,.F.);
#799 = EDGE_CURVE('',#613,#792,#800,.T.);
#800 = LINE('',#801,#802);
#801 = CARTESIAN_POINT('',(-0.95,-2.35,0.));
#802 = VECTOR('',#803,1.);
#803 = DIRECTION('',(0.,0.,1.));
#804 = PLANE('',#805);
#805 = AXIS2_PLACEMENT_3D('',#806,#807,#808);
#806 = CARTESIAN_POINT('',(-2.45,-2.35,0.));
#807 = DIRECTION('',(0.,1.,0.));
#808 = DIRECTION('',(1.,0.,0.));
#809 = ADVANCED_FACE('',(#810),#835,.T.);
#810 = FACE_BOUND('',#811,.T.);
#811 = EDGE_LOOP('',(#812,#818,#819,#820,#828,#834));
#812 = ORIENTED_EDGE('',*,*,#813,.F.);
#813 = EDGE_CURVE('',#224,#532,#814,.T.);
#814 = LINE('',#815,#816);
#815 = CARTESIAN_POINT('',(-5.,-1.549999999998,7.));
#816 = VECTOR('',#817,1.);
#817 = DIRECTION('',(1.,0.,0.));
#818 = ORIENTED_EDGE('',*,*,#231,.T.);
#819 = ORIENTED_EDGE('',*,*,#638,.T.);
#820 = ORIENTED_EDGE('',*,*,#821,.F.);
#821 = EDGE_CURVE('',#822,#639,#824,.T.);
#822 = VERTEX_POINT('',#823);
#823 = CARTESIAN_POINT('',(-0.8,-1.6,7.));
#824 = LINE('',#825,#826);
#825 = CARTESIAN_POINT('',(-0.8,1.55E-15,7.));
#826 = VECTOR('',#827,1.);
#827 = DIRECTION('',(0.,-1.,2.2E-16));
#828 = ORIENTED_EDGE('',*,*,#829,.F.);
#829 = EDGE_CURVE('',#540,#822,#830,.T.);
#830 = LINE('',#831,#832);
#831 = CARTESIAN_POINT('',(-1.7,-1.6,7.));
#832 = VECTOR('',#833,1.);
#833 = DIRECTION('',(1.,0.,0.));
#834 = ORIENTED_EDGE('',*,*,#539,.F.);
#835 = PLANE('',#836);
#836 = AXIS2_PLACEMENT_3D('',#837,#838,#839);
#837 = CARTESIAN_POINT('',(1.25,0.525,7.));
#838 = DIRECTION('',(0.,0.,1.));
#839 = DIRECTION('',(1.,0.,0.));
#840 = ADVANCED_FACE('',(#841),#847,.T.);
#841 = FACE_BOUND('',#842,.T.);
#842 = EDGE_LOOP('',(#843,#844,#845,#846));
#843 = ORIENTED_EDGE('',*,*,#223,.T.);
#844 = ORIENTED_EDGE('',*,*,#813,.T.);
#845 = ORIENTED_EDGE('',*,*,#531,.F.);
#846 = ORIENTED_EDGE('',*,*,#595,.F.);
#847 = PLANE('',#848);
#848 = AXIS2_PLACEMENT_3D('',#849,#850,#851);
#849 = CARTESIAN_POINT('',(-5.,-1.549999999998,7.));
#850 = DIRECTION('',(0.,1.,0.));
#851 = DIRECTION('',(0.,0.,-1.));
#852 = ADVANCED_FACE('',(#853),#871,.T.);
#853 = FACE_BOUND('',#854,.T.);
#854 = EDGE_LOOP('',(#855,#856,#864,#870));
#855 = ORIENTED_EDGE('',*,*,#579,.F.);
#856 = ORIENTED_EDGE('',*,*,#857,.T.);
#857 = EDGE_CURVE('',#572,#858,#860,.T.);
#858 = VERTEX_POINT('',#859);
#859 = CARTESIAN_POINT('',(4.2,2.65,1.25));
#860 = LINE('',#861,#862);
#861 = CARTESIAN_POINT('',(-1.7,2.65,1.25));
#862 = VECTOR('',#863,1.);
#863 = DIRECTION('',(1.,0.,0.));
#864 = ORIENTED_EDGE('',*,*,#865,.T.);
#865 = EDGE_CURVE('',#858,#256,#866,.T.);
#866 = LINE('',#867,#868);
#867 = CARTESIAN_POINT('',(4.2,2.65,1.25));
#868 = VECTOR('',#869,1.);
#869 = DIRECTION('',(0.,0.,1.));
#870 = ORIENTED_EDGE('',*,*,#263,.F.);
#871 = PLANE('',#872);
#872 = AXIS2_PLACEMENT_3D('',#873,#874,#875);
#873 = CARTESIAN_POINT('',(-1.7,2.65,1.25));
#874 = DIRECTION('',(0.,-1.,0.));
#875 = DIRECTION('',(0.,0.,1.));
#876 = ADVANCED_FACE('',(#877),#937,.F.);
#877 = FACE_BOUND('',#878,.F.);
#878 = EDGE_LOOP('',(#879,#880,#889,#897,#905,#913,#921,#929,#935,#936)
  );
#879 = ORIENTED_EDGE('',*,*,#414,.T.);
#880 = ORIENTED_EDGE('',*,*,#881,.T.);
#881 = EDGE_CURVE('',#415,#882,#884,.T.);
#882 = VERTEX_POINT('',#883);
#883 = CARTESIAN_POINT('',(4.2,-1.549999999998,4.749999999997));
#884 = CIRCLE('',#885,0.849999999998);
#885 = AXIS2_PLACEMENT_3D('',#886,#887,#888);
#886 = CARTESIAN_POINT('',(4.2,-0.7,4.749999999998));
#887 = DIRECTION('',(-1.,0.,0.));
#888 = DIRECTION('',(0.,1.,0.));
#889 = ORIENTED_EDGE('',*,*,#890,.T.);
#890 = EDGE_CURVE('',#882,#891,#893,.T.);
#891 = VERTEX_POINT('',#892);
#892 = CARTESIAN_POINT('',(4.2,-1.549999999998,7.));
#893 = LINE('',#894,#895);
#894 = CARTESIAN_POINT('',(4.2,-1.549999999998,5.617949337881));
#895 = VECTOR('',#896,1.);
#896 = DIRECTION('',(0.,0.,1.));
#897 = ORIENTED_EDGE('',*,*,#898,.T.);
#898 = EDGE_CURVE('',#891,#899,#901,.T.);
#899 = VERTEX_POINT('',#900);
#900 = CARTESIAN_POINT('',(4.2,-1.6,7.));
#901 = LINE('',#902,#903);
#902 = CARTESIAN_POINT('',(4.2,2.65,7.));
#903 = VECTOR('',#904,1.);
#904 = DIRECTION('',(0.,-1.,0.));
#905 = ORIENTED_EDGE('',*,*,#906,.T.);
#906 = EDGE_CURVE('',#899,#907,#909,.T.);
#907 = VERTEX_POINT('',#908);
#908 = CARTESIAN_POINT('',(4.2,-1.6,1.9));
#909 = LINE('',#910,#911);
#910 = CARTESIAN_POINT('',(4.2,-1.6,7.));
#911 = VECTOR('',#912,1.);
#912 = DIRECTION('',(0.,0.,-1.));
#913 = ORIENTED_EDGE('',*,*,#914,.T.);
#914 = EDGE_CURVE('',#907,#915,#917,.T.);
#915 = VERTEX_POINT('',#916);
#916 = CARTESIAN_POINT('',(4.2,0.5,1.9));
#917 = LINE('',#918,#919);
#918 = CARTESIAN_POINT('',(4.2,-1.6,1.9));
#919 = VECTOR('',#920,1.);
#920 = DIRECTION('',(0.,1.,0.));
#921 = ORIENTED_EDGE('',*,*,#922,.T.);
#922 = EDGE_CURVE('',#915,#923,#925,.T.);
#923 = VERTEX_POINT('',#924);
#924 = CARTESIAN_POINT('',(4.2,0.875277674973,1.25));
#925 = LINE('',#926,#927);
#926 = CARTESIAN_POINT('',(4.2,0.5,1.9));
#927 = VECTOR('',#928,1.);
#928 = DIRECTION('',(0.,0.5,-0.866025403784));
#929 = ORIENTED_EDGE('',*,*,#930,.T.);
#930 = EDGE_CURVE('',#923,#858,#931,.T.);
#931 = LINE('',#932,#933);
#932 = CARTESIAN_POINT('',(4.2,0.875277674973,1.25));
#933 = VECTOR('',#934,1.);
#934 = DIRECTION('',(0.,1.,0.));
#935 = ORIENTED_EDGE('',*,*,#865,.T.);
#936 = ORIENTED_EDGE('',*,*,#312,.T.);
#937 = PLANE('',#938);
#938 = AXIS2_PLACEMENT_3D('',#939,#940,#941);
#939 = CARTESIAN_POINT('',(4.2,0.598118601855,4.235898675762));
#940 = DIRECTION('',(1.,0.,0.));
#941 = DIRECTION('',(0.,0.,1.));
#942 = ADVANCED_FACE('',(#943),#955,.F.);
#943 = FACE_BOUND('',#944,.F.);
#944 = EDGE_LOOP('',(#945,#946,#952,#953,#954));
#945 = ORIENTED_EDGE('',*,*,#326,.T.);
#946 = ORIENTED_EDGE('',*,*,#947,.T.);
#947 = EDGE_CURVE('',#329,#744,#948,.T.);
#948 = LINE('',#949,#950);
#949 = CARTESIAN_POINT('',(3.45,3.4,0.));
#950 = VECTOR('',#951,1.);
#951 = DIRECTION('',(0.,-1.,0.));
#952 = ORIENTED_EDGE('',*,*,#743,.T.);
#953 = ORIENTED_EDGE('',*,*,#471,.T.);
#954 = ORIENTED_EDGE('',*,*,#446,.T.);
#955 = PLANE('',#956);
#956 = AXIS2_PLACEMENT_3D('',#957,#958,#959);
#957 = CARTESIAN_POINT('',(1.25,0.525,0.));
#958 = DIRECTION('',(0.,0.,1.));
#959 = DIRECTION('',(1.,0.,0.));
#960 = ADVANCED_FACE('',(#961),#988,.F.);
#961 = FACE_BOUND('',#962,.T.);
#962 = EDGE_LOOP('',(#963,#971,#979,#985,#986,#987));
#963 = ORIENTED_EDGE('',*,*,#964,.T.);
#964 = EDGE_CURVE('',#752,#965,#967,.T.);
#965 = VERTEX_POINT('',#966);
#966 = CARTESIAN_POINT('',(3.45,-1.,0.2));
#967 = LINE('',#968,#969);
#968 = CARTESIAN_POINT('',(3.45,-2.35,0.587106270774));
#969 = VECTOR('',#970,1.);
#970 = DIRECTION('',(0.,0.961261695938,-0.275637355817));
#971 = ORIENTED_EDGE('',*,*,#972,.T.);
#972 = EDGE_CURVE('',#965,#973,#975,.T.);
#973 = VERTEX_POINT('',#974);
#974 = CARTESIAN_POINT('',(3.45,1.,0.2));
#975 = LINE('',#976,#977);
#976 = CARTESIAN_POINT('',(3.45,-1.,0.2));
#977 = VECTOR('',#978,1.);
#978 = DIRECTION('',(0.,1.,0.));
#979 = ORIENTED_EDGE('',*,*,#980,.T.);
#980 = EDGE_CURVE('',#973,#393,#981,.T.);
#981 = LINE('',#982,#983);
#982 = CARTESIAN_POINT('',(3.45,1.,0.2));
#983 = VECTOR('',#984,1.);
#984 = DIRECTION('',(0.,0.96,0.28));
#985 = ORIENTED_EDGE('',*,*,#400,.T.);
#986 = ORIENTED_EDGE('',*,*,#947,.T.);
#987 = ORIENTED_EDGE('',*,*,#751,.T.);
#988 = PLANE('',#989);
#989 = AXIS2_PLACEMENT_3D('',#990,#991,#992);
#990 = CARTESIAN_POINT('',(3.45,0.597090658555,0.221059411393));
#991 = DIRECTION('',(1.,0.,0.));
#992 = DIRECTION('',(0.,0.,1.));
#993 = ADVANCED_FACE('',(#994),#1012,.T.);
#994 = FACE_BOUND('',#995,.T.);
#995 = EDGE_LOOP('',(#996,#1004,#1010,#1011));
#996 = ORIENTED_EDGE('',*,*,#997,.T.);
#997 = EDGE_CURVE('',#973,#998,#1000,.T.);
#998 = VERTEX_POINT('',#999);
#999 = CARTESIAN_POINT('',(1.55,1.,0.2));
#1000 = LINE('',#1001,#1002);
#1001 = CARTESIAN_POINT('',(3.45,1.,0.2));
#1002 = VECTOR('',#1003,1.);
#1003 = DIRECTION('',(-1.,-0.,-0.));
#1004 = ORIENTED_EDGE('',*,*,#1005,.T.);
#1005 = EDGE_CURVE('',#998,#385,#1006,.T.);
#1006 = LINE('',#1007,#1008);
#1007 = CARTESIAN_POINT('',(1.55,1.,0.2));
#1008 = VECTOR('',#1009,1.);
#1009 = DIRECTION('',(0.,0.96,0.28));
#1010 = ORIENTED_EDGE('',*,*,#392,.F.);
#1011 = ORIENTED_EDGE('',*,*,#980,.F.);
#1012 = PLANE('',#1013);
#1013 = AXIS2_PLACEMENT_3D('',#1014,#1015,#1016);
#1014 = CARTESIAN_POINT('',(3.45,1.,0.2));
#1015 = DIRECTION('',(0.,0.28,-0.96));
#1016 = DIRECTION('',(0.,0.96,0.28));
#1017 = ADVANCED_FACE('',(#1018),#1043,.T.);
#1018 = FACE_BOUND('',#1019,.F.);
#1019 = EDGE_LOOP('',(#1020,#1028,#1034,#1035,#1036,#1042));
#1020 = ORIENTED_EDGE('',*,*,#1021,.T.);
#1021 = EDGE_CURVE('',#760,#1022,#1024,.T.);
#1022 = VERTEX_POINT('',#1023);
#1023 = CARTESIAN_POINT('',(1.55,-1.,0.2));
#1024 = LINE('',#1025,#1026);
#1025 = CARTESIAN_POINT('',(1.55,-2.35,0.587106270774));
#1026 = VECTOR('',#1027,1.);
#1027 = DIRECTION('',(0.,0.961261695938,-0.275637355817));
#1028 = ORIENTED_EDGE('',*,*,#1029,.T.);
#1029 = EDGE_CURVE('',#1022,#998,#1030,.T.);
#1030 = LINE('',#1031,#1032);
#1031 = CARTESIAN_POINT('',(1.55,-1.,0.2));
#1032 = VECTOR('',#1033,1.);
#1033 = DIRECTION('',(0.,1.,0.));
#1034 = ORIENTED_EDGE('',*,*,#1005,.T.);
#1035 = ORIENTED_EDGE('',*,*,#384,.T.);
#1036 = ORIENTED_EDGE('',*,*,#1037,.T.);
#1037 = EDGE_CURVE('',#377,#768,#1038,.T.);
#1038 = LINE('',#1039,#1040);
#1039 = CARTESIAN_POINT('',(1.55,3.4,0.));
#1040 = VECTOR('',#1041,1.);
#1041 = DIRECTION('',(0.,-1.,0.));
#1042 = ORIENTED_EDGE('',*,*,#767,.T.);
#1043 = PLANE('',#1044);
#1044 = AXIS2_PLACEMENT_3D('',#1045,#1046,#1047);
#1045 = CARTESIAN_POINT('',(1.55,0.597090658555,0.221059411393));
#1046 = DIRECTION('',(1.,0.,0.));
#1047 = DIRECTION('',(0.,0.,1.));
#1048 = ADVANCED_FACE('',(#1049),#1060,.F.);
#1049 = FACE_BOUND('',#1050,.F.);
#1050 = EDGE_LOOP('',(#1051,#1052,#1058,#1059));
#1051 = ORIENTED_EDGE('',*,*,#376,.T.);
#1052 = ORIENTED_EDGE('',*,*,#1053,.T.);
#1053 = EDGE_CURVE('',#369,#776,#1054,.T.);
#1054 = LINE('',#1055,#1056);
#1055 = CARTESIAN_POINT('',(0.95,3.4,0.));
#1056 = VECTOR('',#1057,1.);
#1057 = DIRECTION('',(0.,-1.,0.));
#1058 = ORIENTED_EDGE('',*,*,#775,.T.);
#1059 = ORIENTED_EDGE('',*,*,#1037,.F.);
#1060 = PLANE('',#1061);
#1061 = AXIS2_PLACEMENT_3D('',#1062,#1063,#1064);
#1062 = CARTESIAN_POINT('',(1.25,0.525,0.));
#1063 = DIRECTION('',(0.,0.,1.));
#1064 = DIRECTION('',(1.,0.,0.));
#1065 = ADVANCED_FACE('',(#1066),#1093,.T.);
#1066 = FACE_BOUND('',#1067,.F.);
#1067 = EDGE_LOOP('',(#1068,#1076,#1084,#1090,#1091,#1092));
#1068 = ORIENTED_EDGE('',*,*,#1069,.T.);
#1069 = EDGE_CURVE('',#792,#1070,#1072,.T.);
#1070 = VERTEX_POINT('',#1071);
#1071 = CARTESIAN_POINT('',(-0.95,-1.,0.2));
#1072 = LINE('',#1073,#1074);
#1073 = CARTESIAN_POINT('',(-0.95,-2.35,0.587106270774));
#1074 = VECTOR('',#1075,1.);
#1075 = DIRECTION('',(0.,0.961261695938,-0.275637355817));
#1076 = ORIENTED_EDGE('',*,*,#1077,.T.);
#1077 = EDGE_CURVE('',#1070,#1078,#1080,.T.);
#1078 = VERTEX_POINT('',#1079);
#1079 = CARTESIAN_POINT('',(-0.95,1.,0.2));
#1080 = LINE('',#1081,#1082);
#1081 = CARTESIAN_POINT('',(-0.95,-1.,0.2));
#1082 = VECTOR('',#1083,1.);
#1083 = DIRECTION('',(0.,1.,0.));
#1084 = ORIENTED_EDGE('',*,*,#1085,.T.);
#1085 = EDGE_CURVE('',#1078,#353,#1086,.T.);
#1086 = LINE('',#1087,#1088);
#1087 = CARTESIAN_POINT('',(-0.95,1.,0.2));
#1088 = VECTOR('',#1089,1.);
#1089 = DIRECTION('',(0.,0.96,0.28));
#1090 = ORIENTED_EDGE('',*,*,#352,.T.);
#1091 = ORIENTED_EDGE('',*,*,#620,.T.);
#1092 = ORIENTED_EDGE('',*,*,#799,.T.);
#1093 = PLANE('',#1094);
#1094 = AXIS2_PLACEMENT_3D('',#1095,#1096,#1097);
#1095 = CARTESIAN_POINT('',(-0.95,0.597090658555,0.221059411393));
#1096 = DIRECTION('',(1.,0.,0.));
#1097 = DIRECTION('',(0.,0.,1.));
#1098 = ADVANCED_FACE('',(#1099),#1126,.F.);
#1099 = FACE_BOUND('',#1100,.T.);
#1100 = EDGE_LOOP('',(#1101,#1109,#1117,#1123,#1124,#1125));
#1101 = ORIENTED_EDGE('',*,*,#1102,.T.);
#1102 = EDGE_CURVE('',#784,#1103,#1105,.T.);
#1103 = VERTEX_POINT('',#1104);
#1104 = CARTESIAN_POINT('',(0.95,-1.,0.2));
#1105 = LINE('',#1106,#1107);
#1106 = CARTESIAN_POINT('',(0.95,-2.35,0.587106270774));
#1107 = VECTOR('',#1108,1.);
#1108 = DIRECTION('',(0.,0.961261695938,-0.275637355817));
#1109 = ORIENTED_EDGE('',*,*,#1110,.T.);
#1110 = EDGE_CURVE('',#1103,#1111,#1113,.T.);
#1111 = VERTEX_POINT('',#1112);
#1112 = CARTESIAN_POINT('',(0.95,1.,0.2));
#1113 = LINE('',#1114,#1115);
#1114 = CARTESIAN_POINT('',(0.95,-1.,0.2));
#1115 = VECTOR('',#1116,1.);
#1116 = DIRECTION('',(0.,1.,0.));
#1117 = ORIENTED_EDGE('',*,*,#1118,.T.);
#1118 = EDGE_CURVE('',#1111,#361,#1119,.T.);
#1119 = LINE('',#1120,#1121);
#1120 = CARTESIAN_POINT('',(0.95,1.,0.2));
#1121 = VECTOR('',#1122,1.);
#1122 = DIRECTION('',(0.,0.96,0.28));
#1123 = ORIENTED_EDGE('',*,*,#368,.T.);
#1124 = ORIENTED_EDGE('',*,*,#1053,.T.);
#1125 = ORIENTED_EDGE('',*,*,#783,.T.);
#1126 = PLANE('',#1127);
#1127 = AXIS2_PLACEMENT_3D('',#1128,#1129,#1130);
#1128 = CARTESIAN_POINT('',(0.95,0.597090658555,0.221059411393));
#1129 = DIRECTION('',(1.,0.,0.));
#1130 = DIRECTION('',(0.,0.,1.));
#1131 = ADVANCED_FACE('',(#1132),#1143,.T.);
#1132 = FACE_BOUND('',#1133,.T.);
#1133 = EDGE_LOOP('',(#1134,#1140,#1141,#1142));
#1134 = ORIENTED_EDGE('',*,*,#1135,.T.);
#1135 = EDGE_CURVE('',#1111,#1078,#1136,.T.);
#1136 = LINE('',#1137,#1138);
#1137 = CARTESIAN_POINT('',(0.95,1.,0.2));
#1138 = VECTOR('',#1139,1.);
#1139 = DIRECTION('',(-1.,-0.,-0.));
#1140 = ORIENTED_EDGE('',*,*,#1085,.T.);
#1141 = ORIENTED_EDGE('',*,*,#360,.F.);
#1142 = ORIENTED_EDGE('',*,*,#1118,.F.);
#1143 = PLANE('',#1144);
#1144 = AXIS2_PLACEMENT_3D('',#1145,#1146,#1147);
#1145 = CARTESIAN_POINT('',(0.95,1.,0.2));
#1146 = DIRECTION('',(0.,0.28,-0.96));
#1147 = DIRECTION('',(0.,0.96,0.28));
#1148 = ADVANCED_FACE('',(#1149),#1160,.F.);
#1149 = FACE_BOUND('',#1150,.T.);
#1150 = EDGE_LOOP('',(#1151,#1152,#1158,#1159));
#1151 = ORIENTED_EDGE('',*,*,#881,.T.);
#1152 = ORIENTED_EDGE('',*,*,#1153,.T.);
#1153 = EDGE_CURVE('',#882,#496,#1154,.T.);
#1154 = LINE('',#1155,#1156);
#1155 = CARTESIAN_POINT('',(-5.,-1.549999999998,4.749999999997));
#1156 = VECTOR('',#1157,1.);
#1157 = DIRECTION('',(1.,0.,0.));
#1158 = ORIENTED_EDGE('',*,*,#503,.F.);
#1159 = ORIENTED_EDGE('',*,*,#422,.F.);
#1160 = CYLINDRICAL_SURFACE('',#1161,0.849999999998);
#1161 = AXIS2_PLACEMENT_3D('',#1162,#1163,#1164);
#1162 = CARTESIAN_POINT('',(-5.,-0.7,4.749999999998));
#1163 = DIRECTION('',(-1.,-0.,-0.));
#1164 = DIRECTION('',(0.,1.,0.));
#1165 = ADVANCED_FACE('',(#1166),#1191,.T.);
#1166 = FACE_BOUND('',#1167,.T.);
#1167 = EDGE_LOOP('',(#1168,#1176,#1177,#1178,#1184,#1185));
#1168 = ORIENTED_EDGE('',*,*,#1169,.T.);
#1169 = EDGE_CURVE('',#1170,#729,#1172,.T.);
#1170 = VERTEX_POINT('',#1171);
#1171 = CARTESIAN_POINT('',(3.3,-1.6,7.));
#1172 = LINE('',#1173,#1174);
#1173 = CARTESIAN_POINT('',(3.3,1.55E-15,7.));
#1174 = VECTOR('',#1175,1.);
#1175 = DIRECTION('',(0.,-1.,2.2E-16));
#1176 = ORIENTED_EDGE('',*,*,#736,.T.);
#1177 = ORIENTED_EDGE('',*,*,#487,.T.);
#1178 = ORIENTED_EDGE('',*,*,#1179,.F.);
#1179 = EDGE_CURVE('',#891,#488,#1180,.T.);
#1180 = LINE('',#1181,#1182);
#1181 = CARTESIAN_POINT('',(-5.,-1.549999999998,7.));
#1182 = VECTOR('',#1183,1.);
#1183 = DIRECTION('',(1.,0.,0.));
#1184 = ORIENTED_EDGE('',*,*,#898,.T.);
#1185 = ORIENTED_EDGE('',*,*,#1186,.F.);
#1186 = EDGE_CURVE('',#1170,#899,#1187,.T.);
#1187 = LINE('',#1188,#1189);
#1188 = CARTESIAN_POINT('',(-1.7,-1.6,7.));
#1189 = VECTOR('',#1190,1.);
#1190 = DIRECTION('',(1.,0.,0.));
#1191 = PLANE('',#1192);
#1192 = AXIS2_PLACEMENT_3D('',#1193,#1194,#1195);
#1193 = CARTESIAN_POINT('',(1.25,0.525,7.));
#1194 = DIRECTION('',(0.,0.,1.));
#1195 = DIRECTION('',(1.,0.,0.));
#1196 = ADVANCED_FACE('',(#1197),#1203,.T.);
#1197 = FACE_BOUND('',#1198,.T.);
#1198 = EDGE_LOOP('',(#1199,#1200,#1201,#1202));
#1199 = ORIENTED_EDGE('',*,*,#890,.T.);
#1200 = ORIENTED_EDGE('',*,*,#1179,.T.);
#1201 = ORIENTED_EDGE('',*,*,#495,.T.);
#1202 = ORIENTED_EDGE('',*,*,#1153,.F.);
#1203 = PLANE('',#1204);
#1204 = AXIS2_PLACEMENT_3D('',#1205,#1206,#1207);
#1205 = CARTESIAN_POINT('',(-5.,-1.549999999998,7.));
#1206 = DIRECTION('',(0.,1.,0.));
#1207 = DIRECTION('',(0.,0.,-1.));
#1208 = ADVANCED_FACE('',(#1209),#1220,.T.);
#1209 = FACE_BOUND('',#1210,.T.);
#1210 = EDGE_LOOP('',(#1211,#1217,#1218,#1219));
#1211 = ORIENTED_EDGE('',*,*,#1212,.T.);
#1212 = EDGE_CURVE('',#564,#923,#1213,.T.);
#1213 = LINE('',#1214,#1215);
#1214 = CARTESIAN_POINT('',(-1.7,0.875277674973,1.25));
#1215 = VECTOR('',#1216,1.);
#1216 = DIRECTION('',(1.,0.,0.));
#1217 = ORIENTED_EDGE('',*,*,#930,.T.);
#1218 = ORIENTED_EDGE('',*,*,#857,.F.);
#1219 = ORIENTED_EDGE('',*,*,#571,.F.);
#1220 = PLANE('',#1221);
#1221 = AXIS2_PLACEMENT_3D('',#1222,#1223,#1224);
#1222 = CARTESIAN_POINT('',(-1.7,0.875277674973,1.25));
#1223 = DIRECTION('',(0.,0.,1.));
#1224 = DIRECTION('',(0.,1.,0.));
#1225 = ADVANCED_FACE('',(#1226),#1237,.T.);
#1226 = FACE_BOUND('',#1227,.T.);
#1227 = EDGE_LOOP('',(#1228,#1234,#1235,#1236));
#1228 = ORIENTED_EDGE('',*,*,#1229,.T.);
#1229 = EDGE_CURVE('',#556,#915,#1230,.T.);
#1230 = LINE('',#1231,#1232);
#1231 = CARTESIAN_POINT('',(-1.7,0.5,1.9));
#1232 = VECTOR('',#1233,1.);
#1233 = DIRECTION('',(1.,0.,0.));
#1234 = ORIENTED_EDGE('',*,*,#922,.T.);
#1235 = ORIENTED_EDGE('',*,*,#1212,.F.);
#1236 = ORIENTED_EDGE('',*,*,#563,.F.);
#1237 = PLANE('',#1238);
#1238 = AXIS2_PLACEMENT_3D('',#1239,#1240,#1241);
#1239 = CARTESIAN_POINT('',(-1.7,0.5,1.9));
#1240 = DIRECTION('',(0.,0.866025403784,0.5));
#1241 = DIRECTION('',(0.,0.5,-0.866025403784));
#1242 = ADVANCED_FACE('',(#1243),#1343,.T.);
#1243 = FACE_BOUND('',#1244,.T.);
#1244 = EDGE_LOOP('',(#1245,#1246,#1247,#1255,#1263,#1271,#1279,#1288,
    #1296,#1305,#1313,#1321,#1329,#1335,#1336,#1337));
#1245 = ORIENTED_EDGE('',*,*,#547,.F.);
#1246 = ORIENTED_EDGE('',*,*,#829,.T.);
#1247 = ORIENTED_EDGE('',*,*,#1248,.F.);
#1248 = EDGE_CURVE('',#1249,#822,#1251,.T.);
#1249 = VERTEX_POINT('',#1250);
#1250 = CARTESIAN_POINT('',(-0.8,-1.6,6.8));
#1251 = LINE('',#1252,#1253);
#1252 = CARTESIAN_POINT('',(-0.8,-1.6,6.9));
#1253 = VECTOR('',#1254,1.);
#1254 = DIRECTION('',(0.,0.,1.));
#1255 = ORIENTED_EDGE('',*,*,#1256,.F.);
#1256 = EDGE_CURVE('',#1257,#1249,#1259,.T.);
#1257 = VERTEX_POINT('',#1258);
#1258 = CARTESIAN_POINT('',(-0.4,-1.6,6.4));
#1259 = LINE('',#1260,#1261);
#1260 = CARTESIAN_POINT('',(-0.875,-1.6,6.875));
#1261 = VECTOR('',#1262,1.);
#1262 = DIRECTION('',(-0.707106781187,0.,0.707106781187));
#1263 = ORIENTED_EDGE('',*,*,#1264,.F.);
#1264 = EDGE_CURVE('',#1265,#1257,#1267,.T.);
#1265 = VERTEX_POINT('',#1266);
#1266 = CARTESIAN_POINT('',(-0.8,-1.6,6.));
#1267 = LINE('',#1268,#1269);
#1268 = CARTESIAN_POINT('',(-0.775,-1.6,6.025));
#1269 = VECTOR('',#1270,1.);
#1270 = DIRECTION('',(0.707106781187,0.,0.707106781187));
#1271 = ORIENTED_EDGE('',*,*,#1272,.F.);
#1272 = EDGE_CURVE('',#1273,#1265,#1275,.T.);
#1273 = VERTEX_POINT('',#1274);
#1274 = CARTESIAN_POINT('',(-0.8,-1.6,3.9));
#1275 = LINE('',#1276,#1277);
#1276 = CARTESIAN_POINT('',(-0.8,-1.6,5.45));
#1277 = VECTOR('',#1278,1.);
#1278 = DIRECTION('',(0.,0.,1.));
#1279 = ORIENTED_EDGE('',*,*,#1280,.F.);
#1280 = EDGE_CURVE('',#1281,#1273,#1283,.T.);
#1281 = VERTEX_POINT('',#1282);
#1282 = CARTESIAN_POINT('',(-0.1,-1.6,3.2));
#1283 = CIRCLE('',#1284,0.7);
#1284 = AXIS2_PLACEMENT_3D('',#1285,#1286,#1287);
#1285 = CARTESIAN_POINT('',(-0.1,-1.6,3.9));
#1286 = DIRECTION('',(0.,1.,-2.2E-16));
#1287 = DIRECTION('',(1.,0.,0.));
#1288 = ORIENTED_EDGE('',*,*,#1289,.F.);
#1289 = EDGE_CURVE('',#1290,#1281,#1292,.T.);
#1290 = VERTEX_POINT('',#1291);
#1291 = CARTESIAN_POINT('',(2.6,-1.6,3.2));
#1292 = LINE('',#1293,#1294);
#1293 = CARTESIAN_POINT('',(-0.325,-1.6,3.2));
#1294 = VECTOR('',#1295,1.);
#1295 = DIRECTION('',(-1.,0.,0.));
#1296 = ORIENTED_EDGE('',*,*,#1297,.F.);
#1297 = EDGE_CURVE('',#1298,#1290,#1300,.T.);
#1298 = VERTEX_POINT('',#1299);
#1299 = CARTESIAN_POINT('',(3.3,-1.6,3.9));
#1300 = CIRCLE('',#1301,0.7);
#1301 = AXIS2_PLACEMENT_3D('',#1302,#1303,#1304);
#1302 = CARTESIAN_POINT('',(2.6,-1.6,3.9));
#1303 = DIRECTION('',(0.,1.,-2.2E-16));
#1304 = DIRECTION('',(1.,0.,0.));
#1305 = ORIENTED_EDGE('',*,*,#1306,.T.);
#1306 = EDGE_CURVE('',#1298,#1307,#1309,.T.);
#1307 = VERTEX_POINT('',#1308);
#1308 = CARTESIAN_POINT('',(3.3,-1.6,6.));
#1309 = LINE('',#1310,#1311);
#1310 = CARTESIAN_POINT('',(3.3,-1.6,5.45));
#1311 = VECTOR('',#1312,1.);
#1312 = DIRECTION('',(0.,0.,1.));
#1313 = ORIENTED_EDGE('',*,*,#1314,.T.);
#1314 = EDGE_CURVE('',#1307,#1315,#1317,.T.);
#1315 = VERTEX_POINT('',#1316);
#1316 = CARTESIAN_POINT('',(2.9,-1.6,6.4));
#1317 = LINE('',#1318,#1319);
#1318 = CARTESIAN_POINT('',(1.8,-1.6,7.5));
#1319 = VECTOR('',#1320,1.);
#1320 = DIRECTION('',(-0.707106781187,0.,0.707106781187));
#1321 = ORIENTED_EDGE('',*,*,#1322,.T.);
#1322 = EDGE_CURVE('',#1315,#1323,#1325,.T.);
#1323 = VERTEX_POINT('',#1324);
#1324 = CARTESIAN_POINT('',(3.3,-1.6,6.8));
#1325 = LINE('',#1326,#1327);
#1326 = CARTESIAN_POINT('',(1.9,-1.6,5.4));
#1327 = VECTOR('',#1328,1.);
#1328 = DIRECTION('',(0.707106781187,0.,0.707106781187));
#1329 = ORIENTED_EDGE('',*,*,#1330,.T.);
#1330 = EDGE_CURVE('',#1323,#1170,#1331,.T.);
#1331 = LINE('',#1332,#1333);
#1332 = CARTESIAN_POINT('',(3.3,-1.6,6.9));
#1333 = VECTOR('',#1334,1.);
#1334 = DIRECTION('',(0.,0.,1.));
#1335 = ORIENTED_EDGE('',*,*,#1186,.T.);
#1336 = ORIENTED_EDGE('',*,*,#906,.T.);
#1337 = ORIENTED_EDGE('',*,*,#1338,.F.);
#1338 = EDGE_CURVE('',#548,#907,#1339,.T.);
#1339 = LINE('',#1340,#1341);
#1340 = CARTESIAN_POINT('',(-1.7,-1.6,1.9));
#1341 = VECTOR('',#1342,1.);
#1342 = DIRECTION('',(1.,0.,0.));
#1343 = PLANE('',#1344);
#1344 = AXIS2_PLACEMENT_3D('',#1345,#1346,#1347);
#1345 = CARTESIAN_POINT('',(-1.7,-1.6,7.));
#1346 = DIRECTION('',(0.,1.,0.));
#1347 = DIRECTION('',(0.,0.,-1.));
#1348 = ADVANCED_FACE('',(#1349,#1355,#1389),#1423,.T.);
#1349 = FACE_BOUND('',#1350,.T.);
#1350 = EDGE_LOOP('',(#1351,#1352,#1353,#1354));
#1351 = ORIENTED_EDGE('',*,*,#1338,.T.);
#1352 = ORIENTED_EDGE('',*,*,#914,.T.);
#1353 = ORIENTED_EDGE('',*,*,#1229,.F.);
#1354 = ORIENTED_EDGE('',*,*,#555,.F.);
#1355 = FACE_BOUND('',#1356,.T.);
#1356 = EDGE_LOOP('',(#1357,#1367,#1375,#1383));
#1357 = ORIENTED_EDGE('',*,*,#1358,.F.);
#1358 = EDGE_CURVE('',#1359,#1361,#1363,.T.);
#1359 = VERTEX_POINT('',#1360);
#1360 = CARTESIAN_POINT('',(2.18,-0.32,1.9));
#1361 = VERTEX_POINT('',#1362);
#1362 = CARTESIAN_POINT('',(2.82,-0.32,1.9));
#1363 = LINE('',#1364,#1365);
#1364 = CARTESIAN_POINT('',(0.56,-0.32,1.9));
#1365 = VECTOR('',#1366,1.);
#1366 = DIRECTION('',(1.,0.,0.));
#1367 = ORIENTED_EDGE('',*,*,#1368,.T.);
#1368 = EDGE_CURVE('',#1359,#1369,#1371,.T.);
#1369 = VERTEX_POINT('',#1370);
#1370 = CARTESIAN_POINT('',(2.18,0.32,1.9));
#1371 = LINE('',#1372,#1373);
#1372 = CARTESIAN_POINT('',(2.18,-0.8,1.9));
#1373 = VECTOR('',#1374,1.);
#1374 = DIRECTION('',(0.,1.,0.));
#1375 = ORIENTED_EDGE('',*,*,#1376,.F.);
#1376 = EDGE_CURVE('',#1377,#1369,#1379,.T.);
#1377 = VERTEX_POINT('',#1378);
#1378 = CARTESIAN_POINT('',(2.82,0.32,1.9));
#1379 = LINE('',#1380,#1381);
#1380 = CARTESIAN_POINT('',(0.56,0.32,1.9));
#1381 = VECTOR('',#1382,1.);
#1382 = DIRECTION('',(-1.,0.,0.));
#1383 = ORIENTED_EDGE('',*,*,#1384,.F.);
#1384 = EDGE_CURVE('',#1361,#1377,#1385,.T.);
#1385 = LINE('',#1386,#1387);
#1386 = CARTESIAN_POINT('',(2.82,-0.8,1.9));
#1387 = VECTOR('',#1388,1.);
#1388 = DIRECTION('',(0.,1.,0.));
#1389 = FACE_BOUND('',#1390,.T.);
#1390 = EDGE_LOOP('',(#1391,#1401,#1409,#1417));
#1391 = ORIENTED_EDGE('',*,*,#1392,.F.);
#1392 = EDGE_CURVE('',#1393,#1395,#1397,.T.);
#1393 = VERTEX_POINT('',#1394);
#1394 = CARTESIAN_POINT('',(-0.32,-0.32,1.9));
#1395 = VERTEX_POINT('',#1396);
#1396 = CARTESIAN_POINT('',(0.32,-0.32,1.9));
#1397 = LINE('',#1398,#1399);
#1398 = CARTESIAN_POINT('',(-0.69,-0.32,1.9));
#1399 = VECTOR('',#1400,1.);
#1400 = DIRECTION('',(1.,0.,0.));
#1401 = ORIENTED_EDGE('',*,*,#1402,.T.);
#1402 = EDGE_CURVE('',#1393,#1403,#1405,.T.);
#1403 = VERTEX_POINT('',#1404);
#1404 = CARTESIAN_POINT('',(-0.32,0.32,1.9));
#1405 = LINE('',#1406,#1407);
#1406 = CARTESIAN_POINT('',(-0.32,-0.8,1.9));
#1407 = VECTOR('',#1408,1.);
#1408 = DIRECTION('',(0.,1.,0.));
#1409 = ORIENTED_EDGE('',*,*,#1410,.F.);
#1410 = EDGE_CURVE('',#1411,#1403,#1413,.T.);
#1411 = VERTEX_POINT('',#1412);
#1412 = CARTESIAN_POINT('',(0.32,0.32,1.9));
#1413 = LINE('',#1414,#1415);
#1414 = CARTESIAN_POINT('',(-0.69,0.32,1.9));
#1415 = VECTOR('',#1416,1.);
#1416 = DIRECTION('',(-1.,0.,0.));
#1417 = ORIENTED_EDGE('',*,*,#1418,.F.);
#1418 = EDGE_CURVE('',#1395,#1411,#1419,.T.);
#1419 = LINE('',#1420,#1421);
#1420 = CARTESIAN_POINT('',(0.32,-0.8,1.9));
#1421 = VECTOR('',#1422,1.);
#1422 = DIRECTION('',(0.,1.,0.));
#1423 = PLANE('',#1424);
#1424 = AXIS2_PLACEMENT_3D('',#1425,#1426,#1427);
#1425 = CARTESIAN_POINT('',(-1.7,-1.6,1.9));
#1426 = DIRECTION('',(0.,0.,1.));
#1427 = DIRECTION('',(0.,1.,0.));
#1428 = ADVANCED_FACE('',(#1429),#1440,.T.);
#1429 = FACE_BOUND('',#1430,.T.);
#1430 = EDGE_LOOP('',(#1431,#1432,#1433,#1439));
#1431 = ORIENTED_EDGE('',*,*,#791,.T.);
#1432 = ORIENTED_EDGE('',*,*,#1069,.T.);
#1433 = ORIENTED_EDGE('',*,*,#1434,.F.);
#1434 = EDGE_CURVE('',#1103,#1070,#1435,.T.);
#1435 = LINE('',#1436,#1437);
#1436 = CARTESIAN_POINT('',(0.95,-1.,0.2));
#1437 = VECTOR('',#1438,1.);
#1438 = DIRECTION('',(-1.,-0.,-0.));
#1439 = ORIENTED_EDGE('',*,*,#1102,.F.);
#1440 = PLANE('',#1441);
#1441 = AXIS2_PLACEMENT_3D('',#1442,#1443,#1444);
#1442 = CARTESIAN_POINT('',(0.95,-2.35,0.587106270774));
#1443 = DIRECTION('',(0.,-0.275637355817,-0.961261695938));
#1444 = DIRECTION('',(0.,0.961261695938,-0.275637355817));
#1445 = ADVANCED_FACE('',(#1446),#1457,.T.);
#1446 = FACE_BOUND('',#1447,.T.);
#1447 = EDGE_LOOP('',(#1448,#1449,#1450,#1456));
#1448 = ORIENTED_EDGE('',*,*,#759,.T.);
#1449 = ORIENTED_EDGE('',*,*,#1021,.T.);
#1450 = ORIENTED_EDGE('',*,*,#1451,.F.);
#1451 = EDGE_CURVE('',#965,#1022,#1452,.T.);
#1452 = LINE('',#1453,#1454);
#1453 = CARTESIAN_POINT('',(3.45,-1.,0.2));
#1454 = VECTOR('',#1455,1.);
#1455 = DIRECTION('',(-1.,-0.,-0.));
#1456 = ORIENTED_EDGE('',*,*,#964,.F.);
#1457 = PLANE('',#1458);
#1458 = AXIS2_PLACEMENT_3D('',#1459,#1460,#1461);
#1459 = CARTESIAN_POINT('',(3.45,-2.35,0.587106270774));
#1460 = DIRECTION('',(0.,-0.275637355817,-0.961261695938));
#1461 = DIRECTION('',(0.,0.961261695938,-0.275637355817));
#1462 = ADVANCED_FACE('',(#1463),#1474,.T.);
#1463 = FACE_BOUND('',#1464,.T.);
#1464 = EDGE_LOOP('',(#1465,#1466,#1472,#1473));
#1465 = ORIENTED_EDGE('',*,*,#1330,.F.);
#1466 = ORIENTED_EDGE('',*,*,#1467,.T.);
#1467 = EDGE_CURVE('',#1323,#721,#1468,.T.);
#1468 = LINE('',#1469,#1470);
#1469 = CARTESIAN_POINT('',(3.3,1.51E-15,6.8));
#1470 = VECTOR('',#1471,1.);
#1471 = DIRECTION('',(0.,-1.,2.2E-16));
#1472 = ORIENTED_EDGE('',*,*,#728,.T.);
#1473 = ORIENTED_EDGE('',*,*,#1169,.F.);
#1474 = PLANE('',#1475);
#1475 = AXIS2_PLACEMENT_3D('',#1476,#1477,#1478);
#1476 = CARTESIAN_POINT('',(3.3,1.51E-15,6.8));
#1477 = DIRECTION('',(-1.,0.,0.));
#1478 = DIRECTION('',(0.,2.2E-16,1.));
#1479 = ADVANCED_FACE('',(#1480),#1491,.T.);
#1480 = FACE_BOUND('',#1481,.T.);
#1481 = EDGE_LOOP('',(#1482,#1483,#1489,#1490));
#1482 = ORIENTED_EDGE('',*,*,#1322,.F.);
#1483 = ORIENTED_EDGE('',*,*,#1484,.T.);
#1484 = EDGE_CURVE('',#1315,#713,#1485,.T.);
#1485 = LINE('',#1486,#1487);
#1486 = CARTESIAN_POINT('',(2.9,1.42E-15,6.4));
#1487 = VECTOR('',#1488,1.);
#1488 = DIRECTION('',(0.,-1.,2.2E-16));
#1489 = ORIENTED_EDGE('',*,*,#720,.T.);
#1490 = ORIENTED_EDGE('',*,*,#1467,.F.);
#1491 = PLANE('',#1492);
#1492 = AXIS2_PLACEMENT_3D('',#1493,#1494,#1495);
#1493 = CARTESIAN_POINT('',(2.9,1.42E-15,6.4));
#1494 = DIRECTION('',(-0.707106781187,1.6E-16,0.707106781187));
#1495 = DIRECTION('',(0.707106781187,1.6E-16,0.707106781187));
#1496 = ADVANCED_FACE('',(#1497),#1508,.T.);
#1497 = FACE_BOUND('',#1498,.T.);
#1498 = EDGE_LOOP('',(#1499,#1500,#1506,#1507));
#1499 = ORIENTED_EDGE('',*,*,#1314,.F.);
#1500 = ORIENTED_EDGE('',*,*,#1501,.T.);
#1501 = EDGE_CURVE('',#1307,#705,#1502,.T.);
#1502 = LINE('',#1503,#1504);
#1503 = CARTESIAN_POINT('',(3.3,1.33E-15,6.));
#1504 = VECTOR('',#1505,1.);
#1505 = DIRECTION('',(0.,-1.,2.2E-16));
#1506 = ORIENTED_EDGE('',*,*,#712,.T.);
#1507 = ORIENTED_EDGE('',*,*,#1484,.F.);
#1508 = PLANE('',#1509);
#1509 = AXIS2_PLACEMENT_3D('',#1510,#1511,#1512);
#1510 = CARTESIAN_POINT('',(3.3,1.33E-15,6.));
#1511 = DIRECTION('',(-0.707106781187,-1.6E-16,-0.707106781187));
#1512 = DIRECTION('',(-0.707106781187,1.6E-16,0.707106781187));
#1513 = ADVANCED_FACE('',(#1514),#1525,.T.);
#1514 = FACE_BOUND('',#1515,.T.);
#1515 = EDGE_LOOP('',(#1516,#1517,#1523,#1524));
#1516 = ORIENTED_EDGE('',*,*,#1306,.F.);
#1517 = ORIENTED_EDGE('',*,*,#1518,.T.);
#1518 = EDGE_CURVE('',#1298,#696,#1519,.T.);
#1519 = LINE('',#1520,#1521);
#1520 = CARTESIAN_POINT('',(3.3,8.7E-16,3.9));
#1521 = VECTOR('',#1522,1.);
#1522 = DIRECTION('',(0.,-1.,2.2E-16));
#1523 = ORIENTED_EDGE('',*,*,#704,.T.);
#1524 = ORIENTED_EDGE('',*,*,#1501,.F.);
#1525 = PLANE('',#1526);
#1526 = AXIS2_PLACEMENT_3D('',#1527,#1528,#1529);
#1527 = CARTESIAN_POINT('',(3.3,8.7E-16,3.9));
#1528 = DIRECTION('',(-1.,0.,0.));
#1529 = DIRECTION('',(0.,2.2E-16,1.));
#1530 = ADVANCED_FACE('',(#1531),#1542,.F.);
#1531 = FACE_BOUND('',#1532,.T.);
#1532 = EDGE_LOOP('',(#1533,#1534,#1540,#1541));
#1533 = ORIENTED_EDGE('',*,*,#1297,.T.);
#1534 = ORIENTED_EDGE('',*,*,#1535,.T.);
#1535 = EDGE_CURVE('',#1290,#688,#1536,.T.);
#1536 = LINE('',#1537,#1538);
#1537 = CARTESIAN_POINT('',(2.6,7.1E-16,3.2));
#1538 = VECTOR('',#1539,1.);
#1539 = DIRECTION('',(0.,-1.,2.2E-16));
#1540 = ORIENTED_EDGE('',*,*,#695,.F.);
#1541 = ORIENTED_EDGE('',*,*,#1518,.F.);
#1542 = CYLINDRICAL_SURFACE('',#1543,0.7);
#1543 = AXIS2_PLACEMENT_3D('',#1544,#1545,#1546);
#1544 = CARTESIAN_POINT('',(2.6,8.7E-16,3.9));
#1545 = DIRECTION('',(0.,1.,-2.2E-16));
#1546 = DIRECTION('',(1.,0.,0.));
#1547 = ADVANCED_FACE('',(#1548),#1564,.F.);
#1548 = FACE_BOUND('',#1549,.T.);
#1549 = EDGE_LOOP('',(#1550,#1551,#1557,#1558));
#1550 = ORIENTED_EDGE('',*,*,#1280,.T.);
#1551 = ORIENTED_EDGE('',*,*,#1552,.T.);
#1552 = EDGE_CURVE('',#1273,#671,#1553,.T.);
#1553 = LINE('',#1554,#1555);
#1554 = CARTESIAN_POINT('',(-0.8,8.7E-16,3.9));
#1555 = VECTOR('',#1556,1.);
#1556 = DIRECTION('',(0.,-1.,2.2E-16));
#1557 = ORIENTED_EDGE('',*,*,#678,.F.);
#1558 = ORIENTED_EDGE('',*,*,#1559,.F.);
#1559 = EDGE_CURVE('',#1281,#679,#1560,.T.);
#1560 = LINE('',#1561,#1562);
#1561 = CARTESIAN_POINT('',(-0.1,7.1E-16,3.2));
#1562 = VECTOR('',#1563,1.);
#1563 = DIRECTION('',(0.,-1.,2.2E-16));
#1564 = CYLINDRICAL_SURFACE('',#1565,0.7);
#1565 = AXIS2_PLACEMENT_3D('',#1566,#1567,#1568);
#1566 = CARTESIAN_POINT('',(-0.1,8.7E-16,3.9));
#1567 = DIRECTION('',(0.,1.,-2.2E-16));
#1568 = DIRECTION('',(1.,0.,0.));
#1569 = ADVANCED_FACE('',(#1570),#1581,.F.);
#1570 = FACE_BOUND('',#1571,.F.);
#1571 = EDGE_LOOP('',(#1572,#1573,#1574,#1575));
#1572 = ORIENTED_EDGE('',*,*,#1272,.F.);
#1573 = ORIENTED_EDGE('',*,*,#1552,.T.);
#1574 = ORIENTED_EDGE('',*,*,#670,.T.);
#1575 = ORIENTED_EDGE('',*,*,#1576,.F.);
#1576 = EDGE_CURVE('',#1265,#663,#1577,.T.);
#1577 = LINE('',#1578,#1579);
#1578 = CARTESIAN_POINT('',(-0.8,1.33E-15,6.));
#1579 = VECTOR('',#1580,1.);
#1580 = DIRECTION('',(0.,-1.,2.2E-16));
#1581 = PLANE('',#1582);
#1582 = AXIS2_PLACEMENT_3D('',#1583,#1584,#1585);
#1583 = CARTESIAN_POINT('',(-0.8,8.7E-16,3.9));
#1584 = DIRECTION('',(-1.,0.,0.));
#1585 = DIRECTION('',(0.,2.2E-16,1.));
#1586 = ADVANCED_FACE('',(#1587),#1598,.F.);
#1587 = FACE_BOUND('',#1588,.F.);
#1588 = EDGE_LOOP('',(#1589,#1590,#1591,#1592));
#1589 = ORIENTED_EDGE('',*,*,#1264,.F.);
#1590 = ORIENTED_EDGE('',*,*,#1576,.T.);
#1591 = ORIENTED_EDGE('',*,*,#662,.T.);
#1592 = ORIENTED_EDGE('',*,*,#1593,.F.);
#1593 = EDGE_CURVE('',#1257,#655,#1594,.T.);
#1594 = LINE('',#1595,#1596);
#1595 = CARTESIAN_POINT('',(-0.4,1.42E-15,6.4));
#1596 = VECTOR('',#1597,1.);
#1597 = DIRECTION('',(0.,-1.,2.2E-16));
#1598 = PLANE('',#1599);
#1599 = AXIS2_PLACEMENT_3D('',#1600,#1601,#1602);
#1600 = CARTESIAN_POINT('',(-0.8,1.33E-15,6.));
#1601 = DIRECTION('',(-0.707106781187,1.6E-16,0.707106781187));
#1602 = DIRECTION('',(0.707106781187,1.6E-16,0.707106781187));
#1603 = ADVANCED_FACE('',(#1604),#1615,.F.);
#1604 = FACE_BOUND('',#1605,.F.);
#1605 = EDGE_LOOP('',(#1606,#1607,#1608,#1609));
#1606 = ORIENTED_EDGE('',*,*,#1256,.F.);
#1607 = ORIENTED_EDGE('',*,*,#1593,.T.);
#1608 = ORIENTED_EDGE('',*,*,#654,.T.);
#1609 = ORIENTED_EDGE('',*,*,#1610,.F.);
#1610 = EDGE_CURVE('',#1249,#647,#1611,.T.);
#1611 = LINE('',#1612,#1613);
#1612 = CARTESIAN_POINT('',(-0.8,1.51E-15,6.8));
#1613 = VECTOR('',#1614,1.);
#1614 = DIRECTION('',(0.,-1.,2.2E-16));
#1615 = PLANE('',#1616);
#1616 = AXIS2_PLACEMENT_3D('',#1617,#1618,#1619);
#1617 = CARTESIAN_POINT('',(-0.4,1.42E-15,6.4));
#1618 = DIRECTION('',(-0.707106781187,-1.6E-16,-0.707106781187));
#1619 = DIRECTION('',(-0.707106781187,1.6E-16,0.707106781187));
#1620 = ADVANCED_FACE('',(#1621),#1627,.F.);
#1621 = FACE_BOUND('',#1622,.F.);
#1622 = EDGE_LOOP('',(#1623,#1624,#1625,#1626));
#1623 = ORIENTED_EDGE('',*,*,#1248,.F.);
#1624 = ORIENTED_EDGE('',*,*,#1610,.T.);
#1625 = ORIENTED_EDGE('',*,*,#646,.T.);
#1626 = ORIENTED_EDGE('',*,*,#821,.F.);
#1627 = PLANE('',#1628);
#1628 = AXIS2_PLACEMENT_3D('',#1629,#1630,#1631);
#1629 = CARTESIAN_POINT('',(-0.8,1.51E-15,6.8));
#1630 = DIRECTION('',(-1.,0.,0.));
#1631 = DIRECTION('',(0.,2.2E-16,1.));
#1632 = ADVANCED_FACE('',(#1633,#1639),#1673,.T.);
#1633 = FACE_BOUND('',#1634,.T.);
#1634 = EDGE_LOOP('',(#1635,#1636,#1637,#1638));
#1635 = ORIENTED_EDGE('',*,*,#1451,.T.);
#1636 = ORIENTED_EDGE('',*,*,#1029,.T.);
#1637 = ORIENTED_EDGE('',*,*,#997,.F.);
#1638 = ORIENTED_EDGE('',*,*,#972,.F.);
#1639 = FACE_BOUND('',#1640,.T.);
#1640 = EDGE_LOOP('',(#1641,#1651,#1659,#1667));
#1641 = ORIENTED_EDGE('',*,*,#1642,.F.);
#1642 = EDGE_CURVE('',#1643,#1645,#1647,.T.);
#1643 = VERTEX_POINT('',#1644);
#1644 = CARTESIAN_POINT('',(2.82,-0.32,0.2));
#1645 = VERTEX_POINT('',#1646);
#1646 = CARTESIAN_POINT('',(2.18,-0.32,0.2));
#1647 = LINE('',#1648,#1649);
#1648 = CARTESIAN_POINT('',(3.135,-0.32,0.2));
#1649 = VECTOR('',#1650,1.);
#1650 = DIRECTION('',(-1.,-0.,-0.));
#1651 = ORIENTED_EDGE('',*,*,#1652,.F.);
#1652 = EDGE_CURVE('',#1653,#1643,#1655,.T.);
#1653 = VERTEX_POINT('',#1654);
#1654 = CARTESIAN_POINT('',(2.82,0.32,0.2));
#1655 = LINE('',#1656,#1657);
#1656 = CARTESIAN_POINT('',(2.82,-0.5,0.2));
#1657 = VECTOR('',#1658,1.);
#1658 = DIRECTION('',(0.,-1.,0.));
#1659 = ORIENTED_EDGE('',*,*,#1660,.F.);
#1660 = EDGE_CURVE('',#1661,#1653,#1663,.T.);
#1661 = VERTEX_POINT('',#1662);
#1662 = CARTESIAN_POINT('',(2.18,0.32,0.2));
#1663 = LINE('',#1664,#1665);
#1664 = CARTESIAN_POINT('',(3.135,0.32,0.2));
#1665 = VECTOR('',#1666,1.);
#1666 = DIRECTION('',(1.,0.,0.));
#1667 = ORIENTED_EDGE('',*,*,#1668,.T.);
#1668 = EDGE_CURVE('',#1661,#1645,#1669,.T.);
#1669 = LINE('',#1670,#1671);
#1670 = CARTESIAN_POINT('',(2.18,-0.5,0.2));
#1671 = VECTOR('',#1672,1.);
#1672 = DIRECTION('',(0.,-1.,0.));
#1673 = PLANE('',#1674);
#1674 = AXIS2_PLACEMENT_3D('',#1675,#1676,#1677);
#1675 = CARTESIAN_POINT('',(3.45,-1.,0.2));
#1676 = DIRECTION('',(0.,0.,-1.));
#1677 = DIRECTION('',(0.,1.,0.));
#1678 = ADVANCED_FACE('',(#1679,#1685),#1719,.T.);
#1679 = FACE_BOUND('',#1680,.T.);
#1680 = EDGE_LOOP('',(#1681,#1682,#1683,#1684));
#1681 = ORIENTED_EDGE('',*,*,#1434,.T.);
#1682 = ORIENTED_EDGE('',*,*,#1077,.T.);
#1683 = ORIENTED_EDGE('',*,*,#1135,.F.);
#1684 = ORIENTED_EDGE('',*,*,#1110,.F.);
#1685 = FACE_BOUND('',#1686,.T.);
#1686 = EDGE_LOOP('',(#1687,#1697,#1705,#1713));
#1687 = ORIENTED_EDGE('',*,*,#1688,.F.);
#1688 = EDGE_CURVE('',#1689,#1691,#1693,.T.);
#1689 = VERTEX_POINT('',#1690);
#1690 = CARTESIAN_POINT('',(0.32,-0.32,0.2));
#1691 = VERTEX_POINT('',#1692);
#1692 = CARTESIAN_POINT('',(-0.32,-0.32,0.2));
#1693 = LINE('',#1694,#1695);
#1694 = CARTESIAN_POINT('',(0.635,-0.32,0.2));
#1695 = VECTOR('',#1696,1.);
#1696 = DIRECTION('',(-1.,-0.,-0.));
#1697 = ORIENTED_EDGE('',*,*,#1698,.F.);
#1698 = EDGE_CURVE('',#1699,#1689,#1701,.T.);
#1699 = VERTEX_POINT('',#1700);
#1700 = CARTESIAN_POINT('',(0.32,0.32,0.2));
#1701 = LINE('',#1702,#1703);
#1702 = CARTESIAN_POINT('',(0.32,-0.5,0.2));
#1703 = VECTOR('',#1704,1.);
#1704 = DIRECTION('',(0.,-1.,0.));
#1705 = ORIENTED_EDGE('',*,*,#1706,.F.);
#1706 = EDGE_CURVE('',#1707,#1699,#1709,.T.);
#1707 = VERTEX_POINT('',#1708);
#1708 = CARTESIAN_POINT('',(-0.32,0.32,0.2));
#1709 = LINE('',#1710,#1711);
#1710 = CARTESIAN_POINT('',(0.635,0.32,0.2));
#1711 = VECTOR('',#1712,1.);
#1712 = DIRECTION('',(1.,0.,0.));
#1713 = ORIENTED_EDGE('',*,*,#1714,.T.);
#1714 = EDGE_CURVE('',#1707,#1691,#1715,.T.);
#1715 = LINE('',#1716,#1717);
#1716 = CARTESIAN_POINT('',(-0.32,-0.5,0.2));
#1717 = VECTOR('',#1718,1.);
#1718 = DIRECTION('',(0.,-1.,0.));
#1719 = PLANE('',#1720);
#1720 = AXIS2_PLACEMENT_3D('',#1721,#1722,#1723);
#1721 = CARTESIAN_POINT('',(0.95,-1.,0.2));
#1722 = DIRECTION('',(0.,0.,-1.));
#1723 = DIRECTION('',(0.,1.,0.));
#1724 = ADVANCED_FACE('',(#1725),#1741,.F.);
#1725 = FACE_BOUND('',#1726,.F.);
#1726 = EDGE_LOOP('',(#1727,#1733,#1734,#1740));
#1727 = ORIENTED_EDGE('',*,*,#1728,.F.);
#1728 = EDGE_CURVE('',#1361,#1643,#1729,.T.);
#1729 = LINE('',#1730,#1731);
#1730 = CARTESIAN_POINT('',(2.82,-0.32,2.711519));
#1731 = VECTOR('',#1732,1.);
#1732 = DIRECTION('',(0.,0.,-1.));
#1733 = ORIENTED_EDGE('',*,*,#1358,.F.);
#1734 = ORIENTED_EDGE('',*,*,#1735,.T.);
#1735 = EDGE_CURVE('',#1359,#1645,#1736,.T.);
#1736 = LINE('',#1737,#1738);
#1737 = CARTESIAN_POINT('',(2.18,-0.32,2.711519));
#1738 = VECTOR('',#1739,1.);
#1739 = DIRECTION('',(0.,0.,-1.));
#1740 = ORIENTED_EDGE('',*,*,#1642,.F.);
#1741 = PLANE('',#1742);
#1742 = AXIS2_PLACEMENT_3D('',#1743,#1744,#1745);
#1743 = CARTESIAN_POINT('',(2.82,-0.32,2.711519));
#1744 = DIRECTION('',(0.,-1.,0.));
#1745 = DIRECTION('',(0.,0.,-1.));
#1746 = ADVANCED_FACE('',(#1747),#1758,.F.);
#1747 = FACE_BOUND('',#1748,.F.);
#1748 = EDGE_LOOP('',(#1749,#1750,#1751,#1752));
#1749 = ORIENTED_EDGE('',*,*,#1384,.F.);
#1750 = ORIENTED_EDGE('',*,*,#1728,.T.);
#1751 = ORIENTED_EDGE('',*,*,#1652,.F.);
#1752 = ORIENTED_EDGE('',*,*,#1753,.T.);
#1753 = EDGE_CURVE('',#1653,#1377,#1754,.T.);
#1754 = LINE('',#1755,#1756);
#1755 = CARTESIAN_POINT('',(2.82,0.32,-0.538043));
#1756 = VECTOR('',#1757,1.);
#1757 = DIRECTION('',(0.,0.,1.));
#1758 = PLANE('',#1759);
#1759 = AXIS2_PLACEMENT_3D('',#1760,#1761,#1762);
#1760 = CARTESIAN_POINT('',(2.82,0.,1.086738));
#1761 = DIRECTION('',(1.,0.,0.));
#1762 = DIRECTION('',(0.,0.,1.));
#1763 = ADVANCED_FACE('',(#1764),#1775,.F.);
#1764 = FACE_BOUND('',#1765,.F.);
#1765 = EDGE_LOOP('',(#1766,#1767,#1768,#1774));
#1766 = ORIENTED_EDGE('',*,*,#1753,.F.);
#1767 = ORIENTED_EDGE('',*,*,#1660,.F.);
#1768 = ORIENTED_EDGE('',*,*,#1769,.T.);
#1769 = EDGE_CURVE('',#1661,#1369,#1770,.T.);
#1770 = LINE('',#1771,#1772);
#1771 = CARTESIAN_POINT('',(2.18,0.32,-0.538043));
#1772 = VECTOR('',#1773,1.);
#1773 = DIRECTION('',(0.,0.,1.));
#1774 = ORIENTED_EDGE('',*,*,#1376,.F.);
#1775 = PLANE('',#1776);
#1776 = AXIS2_PLACEMENT_3D('',#1777,#1778,#1779);
#1777 = CARTESIAN_POINT('',(2.82,0.32,-0.538043));
#1778 = DIRECTION('',(0.,1.,0.));
#1779 = DIRECTION('',(0.,0.,1.));
#1780 = ADVANCED_FACE('',(#1781),#1787,.T.);
#1781 = FACE_BOUND('',#1782,.T.);
#1782 = EDGE_LOOP('',(#1783,#1784,#1785,#1786));
#1783 = ORIENTED_EDGE('',*,*,#1368,.F.);
#1784 = ORIENTED_EDGE('',*,*,#1735,.T.);
#1785 = ORIENTED_EDGE('',*,*,#1668,.F.);
#1786 = ORIENTED_EDGE('',*,*,#1769,.T.);
#1787 = PLANE('',#1788);
#1788 = AXIS2_PLACEMENT_3D('',#1789,#1790,#1791);
#1789 = CARTESIAN_POINT('',(2.18,0.,1.086738));
#1790 = DIRECTION('',(1.,0.,0.));
#1791 = DIRECTION('',(0.,0.,1.));
#1792 = ADVANCED_FACE('',(#1793),#1809,.F.);
#1793 = FACE_BOUND('',#1794,.F.);
#1794 = EDGE_LOOP('',(#1795,#1801,#1802,#1808));
#1795 = ORIENTED_EDGE('',*,*,#1796,.F.);
#1796 = EDGE_CURVE('',#1395,#1689,#1797,.T.);
#1797 = LINE('',#1798,#1799);
#1798 = CARTESIAN_POINT('',(0.32,-0.32,2.711519));
#1799 = VECTOR('',#1800,1.);
#1800 = DIRECTION('',(0.,0.,-1.));
#1801 = ORIENTED_EDGE('',*,*,#1392,.F.);
#1802 = ORIENTED_EDGE('',*,*,#1803,.T.);
#1803 = EDGE_CURVE('',#1393,#1691,#1804,.T.);
#1804 = LINE('',#1805,#1806);
#1805 = CARTESIAN_POINT('',(-0.32,-0.32,2.711519));
#1806 = VECTOR('',#1807,1.);
#1807 = DIRECTION('',(0.,0.,-1.));
#1808 = ORIENTED_EDGE('',*,*,#1688,.F.);
#1809 = PLANE('',#1810);
#1810 = AXIS2_PLACEMENT_3D('',#1811,#1812,#1813);
#1811 = CARTESIAN_POINT('',(0.32,-0.32,2.711519));
#1812 = DIRECTION('',(0.,-1.,0.));
#1813 = DIRECTION('',(0.,0.,-1.));
#1814 = ADVANCED_FACE('',(#1815),#1826,.T.);
#1815 = FACE_BOUND('',#1816,.T.);
#1816 = EDGE_LOOP('',(#1817,#1818,#1819,#1820));
#1817 = ORIENTED_EDGE('',*,*,#1402,.F.);
#1818 = ORIENTED_EDGE('',*,*,#1803,.T.);
#1819 = ORIENTED_EDGE('',*,*,#1714,.F.);
#1820 = ORIENTED_EDGE('',*,*,#1821,.T.);
#1821 = EDGE_CURVE('',#1707,#1403,#1822,.T.);
#1822 = LINE('',#1823,#1824);
#1823 = CARTESIAN_POINT('',(-0.32,0.32,-0.538043));
#1824 = VECTOR('',#1825,1.);
#1825 = DIRECTION('',(0.,0.,1.));
#1826 = PLANE('',#1827);
#1827 = AXIS2_PLACEMENT_3D('',#1828,#1829,#1830);
#1828 = CARTESIAN_POINT('',(-0.32,0.,1.086738));
#1829 = DIRECTION('',(1.,0.,0.));
#1830 = DIRECTION('',(0.,0.,1.));
#1831 = ADVANCED_FACE('',(#1832),#1843,.F.);
#1832 = FACE_BOUND('',#1833,.F.);
#1833 = EDGE_LOOP('',(#1834,#1835,#1836,#1837));
#1834 = ORIENTED_EDGE('',*,*,#1418,.F.);
#1835 = ORIENTED_EDGE('',*,*,#1796,.T.);
#1836 = ORIENTED_EDGE('',*,*,#1698,.F.);
#1837 = ORIENTED_EDGE('',*,*,#1838,.T.);
#1838 = EDGE_CURVE('',#1699,#1411,#1839,.T.);
#1839 = LINE('',#1840,#1841);
#1840 = CARTESIAN_POINT('',(0.32,0.32,-0.538043));
#1841 = VECTOR('',#1842,1.);
#1842 = DIRECTION('',(0.,0.,1.));
#1843 = PLANE('',#1844);
#1844 = AXIS2_PLACEMENT_3D('',#1845,#1846,#1847);
#1845 = CARTESIAN_POINT('',(0.32,0.,1.086738));
#1846 = DIRECTION('',(1.,0.,0.));
#1847 = DIRECTION('',(0.,0.,1.));
#1848 = ADVANCED_FACE('',(#1849),#1855,.F.);
#1849 = FACE_BOUND('',#1850,.F.);
#1850 = EDGE_LOOP('',(#1851,#1852,#1853,#1854));
#1851 = ORIENTED_EDGE('',*,*,#1838,.F.);
#1852 = ORIENTED_EDGE('',*,*,#1706,.F.);
#1853 = ORIENTED_EDGE('',*,*,#1821,.T.);
#1854 = ORIENTED_EDGE('',*,*,#1410,.F.);
#1855 = PLANE('',#1856);
#1856 = AXIS2_PLACEMENT_3D('',#1857,#1858,#1859);
#1857 = CARTESIAN_POINT('',(0.32,0.32,-0.538043));
#1858 = DIRECTION('',(0.,1.,0.));
#1859 = DIRECTION('',(0.,0.,1.));
#1860 = ADVANCED_FACE('',(#1861),#1867,.T.);
#1861 = FACE_BOUND('',#1862,.T.);
#1862 = EDGE_LOOP('',(#1863,#1864,#1865,#1866));
#1863 = ORIENTED_EDGE('',*,*,#1289,.T.);
#1864 = ORIENTED_EDGE('',*,*,#1559,.T.);
#1865 = ORIENTED_EDGE('',*,*,#687,.T.);
#1866 = ORIENTED_EDGE('',*,*,#1535,.F.);
#1867 = PLANE('',#1868);
#1868 = AXIS2_PLACEMENT_3D('',#1869,#1870,#1871);
#1869 = CARTESIAN_POINT('',(1.25,-1.975,3.2));
#1870 = DIRECTION('',(-4.E-16,3.9E-16,1.));
#1871 = DIRECTION('',(1.,0.,4.E-16));
#1872 = ( GEOMETRIC_REPRESENTATION_CONTEXT(3) 
GLOBAL_UNCERTAINTY_ASSIGNED_CONTEXT((#1876)) 
GLOBAL_UNIT_ASSIGNED_CONTEXT((#1873,#1874,#1875)) REPRESENTATION_CONTEXT
('Context #1','3D Context with UNIT and UNCERTAINTY') );
#1873 = ( LENGTH_UNIT() NAMED_UNIT(*) SI_UNIT(.MILLI.,.METRE.) );
#1874 = ( NAMED_UNIT(*) PLANE_ANGLE_UNIT() SI_UNIT($,.RADIAN.) );
#1875 = ( NAMED_UNIT(*) SI_UNIT($,.STERADIAN.) SOLID_ANGLE_UNIT() );
#1876 = UNCERTAINTY_MEASURE_WITH_UNIT(LENGTH_MEASURE(5.E-06),#1873,
  'distance_accuracy_value','confusion accuracy');
#1877 = CONTEXT_DEPENDENT_SHAPE_REPRESENTATION(#1878,#1880);
#1878 = ( REPRESENTATION_RELATIONSHIP('','',#36,#10) 
REPRESENTATION_RELATIONSHIP_WITH_TRANSFORMATION(#1879) 
SHAPE_REPRESENTATION_RELATIONSHIP() );
#1879 = ITEM_DEFINED_TRANSFORMATION('','',#11,#15);
#1880 = PRODUCT_DEFINITION_SHAPE('Placement','Placement of an item',
  #1881);
#1881 = NEXT_ASSEMBLY_USAGE_OCCURRENCE('195','base','',#5,#31,$);
#1882 = PRODUCT_RELATED_PRODUCT_CATEGORY('part',$,(#33));
#1883 = SHAPE_DEFINITION_REPRESENTATION(#1884,#1890);
#1884 = PRODUCT_DEFINITION_SHAPE('','',#1885);
#1885 = PRODUCT_DEFINITION('design','',#1886,#1889);
#1886 = PRODUCT_DEFINITION_FORMATION('','',#1887);
#1887 = PRODUCT('Pins','Pins','',(#1888));
#1888 = PRODUCT_CONTEXT('',#2,'mechanical');
#1889 = PRODUCT_DEFINITION_CONTEXT('part definition',#2,'design');
#1890 = SHAPE_REPRESENTATION('',(#11,#1891,#1895),#1899);
#1891 = AXIS2_PLACEMENT_3D('',#1892,#1893,#1894);
#1892 = CARTESIAN_POINT('',(0.,0.,0.));
#1893 = DIRECTION('',(0.,0.,1.));
#1894 = DIRECTION('',(1.,0.,0.));
#1895 = AXIS2_PLACEMENT_3D('',#1896,#1897,#1898);
#1896 = CARTESIAN_POINT('',(2.5,0.,0.));
#1897 = DIRECTION('',(0.,0.,1.));
#1898 = DIRECTION('',(1.,0.,0.));
#1899 = ( GEOMETRIC_REPRESENTATION_CONTEXT(3) 
GLOBAL_UNCERTAINTY_ASSIGNED_CONTEXT((#1903)) 
GLOBAL_UNIT_ASSIGNED_CONTEXT((#1900,#1901,#1902)) REPRESENTATION_CONTEXT
('Context #1','3D Context with UNIT and UNCERTAINTY') );
#1900 = ( LENGTH_UNIT() NAMED_UNIT(*) SI_UNIT(.MILLI.,.METRE.) );
#1901 = ( NAMED_UNIT(*) PLANE_ANGLE_UNIT() SI_UNIT($,.RADIAN.) );
#1902 = ( NAMED_UNIT(*) SI_UNIT($,.STERADIAN.) SOLID_ANGLE_UNIT() );
#1903 = UNCERTAINTY_MEASURE_WITH_UNIT(LENGTH_MEASURE(1.E-07),#1900,
  'distance_accuracy_value','confusion accuracy');
#1904 = CONTEXT_DEPENDENT_SHAPE_REPRESENTATION(#1905,#1907);
#1905 = ( REPRESENTATION_RELATIONSHIP('','',#1890,#10) 
REPRESENTATION_RELATIONSHIP_WITH_TRANSFORMATION(#1906) 
SHAPE_REPRESENTATION_RELATIONSHIP() );
#1906 = ITEM_DEFINED_TRANSFORMATION('','',#11,#19);
#1907 = PRODUCT_DEFINITION_SHAPE('Placement','Placement of an item',
  #1908);
#1908 = NEXT_ASSEMBLY_USAGE_OCCURRENCE('198','Pins','',#5,#1885,$);
#1909 = PRODUCT_RELATED_PRODUCT_CATEGORY('part',$,(#1887));
#1910 = SHAPE_DEFINITION_REPRESENTATION(#1911,#1917);
#1911 = PRODUCT_DEFINITION_SHAPE('','',#1912);
#1912 = PRODUCT_DEFINITION('design','',#1913,#1916);
#1913 = PRODUCT_DEFINITION_FORMATION('','',#1914);
#1914 = PRODUCT('Pin','Pin','',(#1915));
#1915 = PRODUCT_CONTEXT('',#2,'mechanical');
#1916 = PRODUCT_DEFINITION_CONTEXT('part definition',#2,'design');
#1917 = ADVANCED_BREP_SHAPE_REPRESENTATION('',(#11,#1918),#2260);
#1918 = MANIFOLD_SOLID_BREP('',#1919);
#1919 = CLOSED_SHELL('',(#1920,#1960,#1991,#2015,#2039,#2056,#2087,#2111
    ,#2135,#2152,#2183,#2207,#2231,#2248));
#1920 = ADVANCED_FACE('',(#1921),#1955,.F.);
#1921 = FACE_BOUND('',#1922,.F.);
#1922 = EDGE_LOOP('',(#1923,#1933,#1941,#1949));
#1923 = ORIENTED_EDGE('',*,*,#1924,.T.);
#1924 = EDGE_CURVE('',#1925,#1927,#1929,.T.);
#1925 = VERTEX_POINT('',#1926);
#1926 = CARTESIAN_POINT('',(-0.12,0.12,6.8));
#1927 = VERTEX_POINT('',#1928);
#1928 = CARTESIAN_POINT('',(0.12,0.12,6.8));
#1929 = LINE('',#1930,#1931);
#1930 = CARTESIAN_POINT('',(-0.32,0.12,6.8));
#1931 = VECTOR('',#1932,1.);
#1932 = DIRECTION('',(1.,0.,0.));
#1933 = ORIENTED_EDGE('',*,*,#1934,.T.);
#1934 = EDGE_CURVE('',#1927,#1935,#1937,.T.);
#1935 = VERTEX_POINT('',#1936);
#1936 = CARTESIAN_POINT('',(0.12,-0.12,6.8));
#1937 = LINE('',#1938,#1939);
#1938 = CARTESIAN_POINT('',(0.12,0.32,6.8));
#1939 = VECTOR('',#1940,1.);
#1940 = DIRECTION('',(0.,-1.,0.));
#1941 = ORIENTED_EDGE('',*,*,#1942,.F.);
#1942 = EDGE_CURVE('',#1943,#1935,#1945,.T.);
#1943 = VERTEX_POINT('',#1944);
#1944 = CARTESIAN_POINT('',(-0.12,-0.12,6.8));
#1945 = LINE('',#1946,#1947);
#1946 = CARTESIAN_POINT('',(-0.32,-0.12,6.8));
#1947 = VECTOR('',#1948,1.);
#1948 = DIRECTION('',(1.,0.,0.));
#1949 = ORIENTED_EDGE('',*,*,#1950,.F.);
#1950 = EDGE_CURVE('',#1925,#1943,#1951,.T.);
#1951 = LINE('',#1952,#1953);
#1952 = CARTESIAN_POINT('',(-0.12,0.32,6.8));
#1953 = VECTOR('',#1954,1.);
#1954 = DIRECTION('',(0.,-1.,0.));
#1955 = PLANE('',#1956);
#1956 = AXIS2_PLACEMENT_3D('',#1957,#1958,#1959);
#1957 = CARTESIAN_POINT('',(-0.32,0.32,6.8));
#1958 = DIRECTION('',(0.,0.,-1.));
#1959 = DIRECTION('',(0.,-1.,0.));
#1960 = ADVANCED_FACE('',(#1961),#1986,.T.);
#1961 = FACE_BOUND('',#1962,.T.);
#1962 = EDGE_LOOP('',(#1963,#1971,#1972,#1980));
#1963 = ORIENTED_EDGE('',*,*,#1964,.F.);
#1964 = EDGE_CURVE('',#1925,#1965,#1967,.T.);
#1965 = VERTEX_POINT('',#1966);
#1966 = CARTESIAN_POINT('',(-0.32,0.32,6.6));
#1967 = LINE('',#1968,#1969);
#1968 = CARTESIAN_POINT('',(-0.253333333333,0.253333333333,
    6.666666666667));
#1969 = VECTOR('',#1970,1.);
#1970 = DIRECTION('',(-0.57735026919,0.57735026919,-0.57735026919));
#1971 = ORIENTED_EDGE('',*,*,#1924,.T.);
#1972 = ORIENTED_EDGE('',*,*,#1973,.T.);
#1973 = EDGE_CURVE('',#1927,#1974,#1976,.T.);
#1974 = VERTEX_POINT('',#1975);
#1975 = CARTESIAN_POINT('',(0.32,0.32,6.6));
#1976 = LINE('',#1977,#1978);
#1977 = CARTESIAN_POINT('',(0.146666666667,0.146666666667,6.773333333333
    ));
#1978 = VECTOR('',#1979,1.);
#1979 = DIRECTION('',(0.57735026919,0.57735026919,-0.57735026919));
#1980 = ORIENTED_EDGE('',*,*,#1981,.F.);
#1981 = EDGE_CURVE('',#1965,#1974,#1982,.T.);
#1982 = LINE('',#1983,#1984);
#1983 = CARTESIAN_POINT('',(-0.32,0.32,6.6));
#1984 = VECTOR('',#1985,1.);
#1985 = DIRECTION('',(1.,0.,0.));
#1986 = PLANE('',#1987);
#1987 = AXIS2_PLACEMENT_3D('',#1988,#1989,#1990);
#1988 = CARTESIAN_POINT('',(-0.32,0.22,6.7));
#1989 = DIRECTION('',(0.,0.707106781187,0.707106781187));
#1990 = DIRECTION('',(1.,0.,-0.));
#1991 = ADVANCED_FACE('',(#1992),#2010,.T.);
#1992 = FACE_BOUND('',#1993,.F.);
#1993 = EDGE_LOOP('',(#1994,#1995,#1996,#2004));
#1994 = ORIENTED_EDGE('',*,*,#1964,.F.);
#1995 = ORIENTED_EDGE('',*,*,#1950,.T.);
#1996 = ORIENTED_EDGE('',*,*,#1997,.T.);
#1997 = EDGE_CURVE('',#1943,#1998,#2000,.T.);
#1998 = VERTEX_POINT('',#1999);
#1999 = CARTESIAN_POINT('',(-0.32,-0.32,6.6));
#2000 = LINE('',#2001,#2002);
#2001 = CARTESIAN_POINT('',(-0.146666666667,-0.146666666667,
    6.773333333333));
#2002 = VECTOR('',#2003,1.);
#2003 = DIRECTION('',(-0.57735026919,-0.57735026919,-0.57735026919));
#2004 = ORIENTED_EDGE('',*,*,#2005,.F.);
#2005 = EDGE_CURVE('',#1965,#1998,#2006,.T.);
#2006 = LINE('',#2007,#2008);
#2007 = CARTESIAN_POINT('',(-0.32,0.32,6.6));
#2008 = VECTOR('',#2009,1.);
#2009 = DIRECTION('',(0.,-1.,0.));
#2010 = PLANE('',#2011);
#2011 = AXIS2_PLACEMENT_3D('',#2012,#2013,#2014);
#2012 = CARTESIAN_POINT('',(-0.22,0.32,6.7));
#2013 = DIRECTION('',(-0.707106781187,0.,0.707106781187));
#2014 = DIRECTION('',(0.,1.,-0.));
#2015 = ADVANCED_FACE('',(#2016),#2034,.F.);
#2016 = FACE_BOUND('',#2017,.T.);
#2017 = EDGE_LOOP('',(#2018,#2019,#2020,#2028));
#2018 = ORIENTED_EDGE('',*,*,#1973,.F.);
#2019 = ORIENTED_EDGE('',*,*,#1934,.T.);
#2020 = ORIENTED_EDGE('',*,*,#2021,.T.);
#2021 = EDGE_CURVE('',#1935,#2022,#2024,.T.);
#2022 = VERTEX_POINT('',#2023);
#2023 = CARTESIAN_POINT('',(0.32,-0.32,6.6));
#2024 = LINE('',#2025,#2026);
#2025 = CARTESIAN_POINT('',(4.E-02,-4.E-02,6.88));
#2026 = VECTOR('',#2027,1.);
#2027 = DIRECTION('',(0.57735026919,-0.57735026919,-0.57735026919));
#2028 = ORIENTED_EDGE('',*,*,#2029,.F.);
#2029 = EDGE_CURVE('',#1974,#2022,#2030,.T.);
#2030 = LINE('',#2031,#2032);
#2031 = CARTESIAN_POINT('',(0.32,0.32,6.6));
#2032 = VECTOR('',#2033,1.);
#2033 = DIRECTION('',(0.,-1.,0.));
#2034 = PLANE('',#2035);
#2035 = AXIS2_PLACEMENT_3D('',#2036,#2037,#2038);
#2036 = CARTESIAN_POINT('',(0.22,0.32,6.7));
#2037 = DIRECTION('',(-0.707106781187,-0.,-0.707106781187));
#2038 = DIRECTION('',(-0.,1.,-0.));
#2039 = ADVANCED_FACE('',(#2040),#2051,.T.);
#2040 = FACE_BOUND('',#2041,.F.);
#2041 = EDGE_LOOP('',(#2042,#2043,#2044,#2045));
#2042 = ORIENTED_EDGE('',*,*,#1997,.F.);
#2043 = ORIENTED_EDGE('',*,*,#1942,.T.);
#2044 = ORIENTED_EDGE('',*,*,#2021,.T.);
#2045 = ORIENTED_EDGE('',*,*,#2046,.F.);
#2046 = EDGE_CURVE('',#1998,#2022,#2047,.T.);
#2047 = LINE('',#2048,#2049);
#2048 = CARTESIAN_POINT('',(-0.32,-0.32,6.6));
#2049 = VECTOR('',#2050,1.);
#2050 = DIRECTION('',(1.,0.,0.));
#2051 = PLANE('',#2052);
#2052 = AXIS2_PLACEMENT_3D('',#2053,#2054,#2055);
#2053 = CARTESIAN_POINT('',(-0.32,-0.22,6.7));
#2054 = DIRECTION('',(-0.,-0.707106781187,0.707106781187));
#2055 = DIRECTION('',(-1.,-0.,-0.));
#2056 = ADVANCED_FACE('',(#2057),#2082,.F.);
#2057 = FACE_BOUND('',#2058,.F.);
#2058 = EDGE_LOOP('',(#2059,#2067,#2075,#2081));
#2059 = ORIENTED_EDGE('',*,*,#2060,.F.);
#2060 = EDGE_CURVE('',#2061,#1965,#2063,.T.);
#2061 = VERTEX_POINT('',#2062);
#2062 = CARTESIAN_POINT('',(-0.32,0.32,-3.2));
#2063 = LINE('',#2064,#2065);
#2064 = CARTESIAN_POINT('',(-0.32,0.32,-3.4));
#2065 = VECTOR('',#2066,1.);
#2066 = DIRECTION('',(0.,0.,1.));
#2067 = ORIENTED_EDGE('',*,*,#2068,.T.);
#2068 = EDGE_CURVE('',#2061,#2069,#2071,.T.);
#2069 = VERTEX_POINT('',#2070);
#2070 = CARTESIAN_POINT('',(0.32,0.32,-3.2));
#2071 = LINE('',#2072,#2073);
#2072 = CARTESIAN_POINT('',(-0.32,0.32,-3.2));
#2073 = VECTOR('',#2074,1.);
#2074 = DIRECTION('',(1.,0.,0.));
#2075 = ORIENTED_EDGE('',*,*,#2076,.T.);
#2076 = EDGE_CURVE('',#2069,#1974,#2077,.T.);
#2077 = LINE('',#2078,#2079);
#2078 = CARTESIAN_POINT('',(0.32,0.32,-3.4));
#2079 = VECTOR('',#2080,1.);
#2080 = DIRECTION('',(0.,0.,1.));
#2081 = ORIENTED_EDGE('',*,*,#1981,.F.);
#2082 = PLANE('',#2083);
#2083 = AXIS2_PLACEMENT_3D('',#2084,#2085,#2086);
#2084 = CARTESIAN_POINT('',(-0.32,0.32,-3.4));
#2085 = DIRECTION('',(0.,-1.,0.));
#2086 = DIRECTION('',(0.,0.,1.));
#2087 = ADVANCED_FACE('',(#2088),#2106,.F.);
#2088 = FACE_BOUND('',#2089,.F.);
#2089 = EDGE_LOOP('',(#2090,#2098,#2104,#2105));
#2090 = ORIENTED_EDGE('',*,*,#2091,.T.);
#2091 = EDGE_CURVE('',#1998,#2092,#2094,.T.);
#2092 = VERTEX_POINT('',#2093);
#2093 = CARTESIAN_POINT('',(-0.32,-0.32,-3.2));
#2094 = LINE('',#2095,#2096);
#2095 = CARTESIAN_POINT('',(-0.32,-0.32,6.8));
#2096 = VECTOR('',#2097,1.);
#2097 = DIRECTION('',(0.,0.,-1.));
#2098 = ORIENTED_EDGE('',*,*,#2099,.T.);
#2099 = EDGE_CURVE('',#2092,#2061,#2100,.T.);
#2100 = LINE('',#2101,#2102);
#2101 = CARTESIAN_POINT('',(-0.32,-0.32,-3.2));
#2102 = VECTOR('',#2103,1.);
#2103 = DIRECTION('',(0.,1.,0.));
#2104 = ORIENTED_EDGE('',*,*,#2060,.T.);
#2105 = ORIENTED_EDGE('',*,*,#2005,.T.);
#2106 = PLANE('',#2107);
#2107 = AXIS2_PLACEMENT_3D('',#2108,#2109,#2110);
#2108 = CARTESIAN_POINT('',(-0.32,0.,1.7));
#2109 = DIRECTION('',(1.,0.,0.));
#2110 = DIRECTION('',(0.,0.,1.));
#2111 = ADVANCED_FACE('',(#2112),#2130,.T.);
#2112 = FACE_BOUND('',#2113,.T.);
#2113 = EDGE_LOOP('',(#2114,#2122,#2128,#2129));
#2114 = ORIENTED_EDGE('',*,*,#2115,.T.);
#2115 = EDGE_CURVE('',#2022,#2116,#2118,.T.);
#2116 = VERTEX_POINT('',#2117);
#2117 = CARTESIAN_POINT('',(0.32,-0.32,-3.2));
#2118 = LINE('',#2119,#2120);
#2119 = CARTESIAN_POINT('',(0.32,-0.32,6.8));
#2120 = VECTOR('',#2121,1.);
#2121 = DIRECTION('',(0.,0.,-1.));
#2122 = ORIENTED_EDGE('',*,*,#2123,.T.);
#2123 = EDGE_CURVE('',#2116,#2069,#2124,.T.);
#2124 = LINE('',#2125,#2126);
#2125 = CARTESIAN_POINT('',(0.32,-0.32,-3.2));
#2126 = VECTOR('',#2127,1.);
#2127 = DIRECTION('',(0.,1.,0.));
#2128 = ORIENTED_EDGE('',*,*,#2076,.T.);
#2129 = ORIENTED_EDGE('',*,*,#2029,.T.);
#2130 = PLANE('',#2131);
#2131 = AXIS2_PLACEMENT_3D('',#2132,#2133,#2134);
#2132 = CARTESIAN_POINT('',(0.32,0.,1.7));
#2133 = DIRECTION('',(1.,0.,0.));
#2134 = DIRECTION('',(0.,0.,1.));
#2135 = ADVANCED_FACE('',(#2136),#2147,.F.);
#2136 = FACE_BOUND('',#2137,.F.);
#2137 = EDGE_LOOP('',(#2138,#2139,#2140,#2141));
#2138 = ORIENTED_EDGE('',*,*,#2091,.F.);
#2139 = ORIENTED_EDGE('',*,*,#2046,.T.);
#2140 = ORIENTED_EDGE('',*,*,#2115,.T.);
#2141 = ORIENTED_EDGE('',*,*,#2142,.F.);
#2142 = EDGE_CURVE('',#2092,#2116,#2143,.T.);
#2143 = LINE('',#2144,#2145);
#2144 = CARTESIAN_POINT('',(-0.32,-0.32,-3.2));
#2145 = VECTOR('',#2146,1.);
#2146 = DIRECTION('',(1.,0.,0.));
#2147 = PLANE('',#2148);
#2148 = AXIS2_PLACEMENT_3D('',#2149,#2150,#2151);
#2149 = CARTESIAN_POINT('',(-0.32,-0.32,6.8));
#2150 = DIRECTION('',(0.,1.,0.));
#2151 = DIRECTION('',(0.,0.,-1.));
#2152 = ADVANCED_FACE('',(#2153),#2178,.T.);
#2153 = FACE_BOUND('',#2154,.F.);
#2154 = EDGE_LOOP('',(#2155,#2163,#2171,#2177));
#2155 = ORIENTED_EDGE('',*,*,#2156,.F.);
#2156 = EDGE_CURVE('',#2157,#2061,#2159,.T.);
#2157 = VERTEX_POINT('',#2158);
#2158 = CARTESIAN_POINT('',(-0.12,0.12,-3.4));
#2159 = LINE('',#2160,#2161);
#2160 = CARTESIAN_POINT('',(-0.146666666667,0.146666666667,
    -3.373333333333));
#2161 = VECTOR('',#2162,1.);
#2162 = DIRECTION('',(-0.57735026919,0.57735026919,0.57735026919));
#2163 = ORIENTED_EDGE('',*,*,#2164,.T.);
#2164 = EDGE_CURVE('',#2157,#2165,#2167,.T.);
#2165 = VERTEX_POINT('',#2166);
#2166 = CARTESIAN_POINT('',(0.12,0.12,-3.4));
#2167 = LINE('',#2168,#2169);
#2168 = CARTESIAN_POINT('',(-0.32,0.12,-3.4));
#2169 = VECTOR('',#2170,1.);
#2170 = DIRECTION('',(1.,0.,0.));
#2171 = ORIENTED_EDGE('',*,*,#2172,.T.);
#2172 = EDGE_CURVE('',#2165,#2069,#2173,.T.);
#2173 = LINE('',#2174,#2175);
#2174 = CARTESIAN_POINT('',(4.E-02,4.E-02,-3.48));
#2175 = VECTOR('',#2176,1.);
#2176 = DIRECTION('',(0.57735026919,0.57735026919,0.57735026919));
#2177 = ORIENTED_EDGE('',*,*,#2068,.F.);
#2178 = PLANE('',#2179);
#2179 = AXIS2_PLACEMENT_3D('',#2180,#2181,#2182);
#2180 = CARTESIAN_POINT('',(-0.32,0.22,-3.3));
#2181 = DIRECTION('',(-0.,0.707106781187,-0.707106781187));
#2182 = DIRECTION('',(-1.,-0.,0.));
#2183 = ADVANCED_FACE('',(#2184),#2202,.T.);
#2184 = FACE_BOUND('',#2185,.F.);
#2185 = EDGE_LOOP('',(#2186,#2194,#2200,#2201));
#2186 = ORIENTED_EDGE('',*,*,#2187,.T.);
#2187 = EDGE_CURVE('',#2092,#2188,#2190,.T.);
#2188 = VERTEX_POINT('',#2189);
#2189 = CARTESIAN_POINT('',(-0.12,-0.12,-3.4));
#2190 = LINE('',#2191,#2192);
#2191 = CARTESIAN_POINT('',(-0.253333333333,-0.253333333333,
    -3.266666666667));
#2192 = VECTOR('',#2193,1.);
#2193 = DIRECTION('',(0.57735026919,0.57735026919,-0.57735026919));
#2194 = ORIENTED_EDGE('',*,*,#2195,.T.);
#2195 = EDGE_CURVE('',#2188,#2157,#2196,.T.);
#2196 = LINE('',#2197,#2198);
#2197 = CARTESIAN_POINT('',(-0.12,-0.32,-3.4));
#2198 = VECTOR('',#2199,1.);
#2199 = DIRECTION('',(0.,1.,0.));
#2200 = ORIENTED_EDGE('',*,*,#2156,.T.);
#2201 = ORIENTED_EDGE('',*,*,#2099,.F.);
#2202 = PLANE('',#2203);
#2203 = AXIS2_PLACEMENT_3D('',#2204,#2205,#2206);
#2204 = CARTESIAN_POINT('',(-0.22,-0.32,-3.3));
#2205 = DIRECTION('',(-0.707106781187,-0.,-0.707106781187));
#2206 = DIRECTION('',(-0.,-1.,0.));
#2207 = ADVANCED_FACE('',(#2208),#2226,.F.);
#2208 = FACE_BOUND('',#2209,.T.);
#2209 = EDGE_LOOP('',(#2210,#2218,#2224,#2225));
#2210 = ORIENTED_EDGE('',*,*,#2211,.T.);
#2211 = EDGE_CURVE('',#2116,#2212,#2214,.T.);
#2212 = VERTEX_POINT('',#2213);
#2213 = CARTESIAN_POINT('',(0.12,-0.12,-3.4));
#2214 = LINE('',#2215,#2216);
#2215 = CARTESIAN_POINT('',(0.146666666667,-0.146666666667,
    -3.373333333333));
#2216 = VECTOR('',#2217,1.);
#2217 = DIRECTION('',(-0.57735026919,0.57735026919,-0.57735026919));
#2218 = ORIENTED_EDGE('',*,*,#2219,.T.);
#2219 = EDGE_CURVE('',#2212,#2165,#2220,.T.);
#2220 = LINE('',#2221,#2222);
#2221 = CARTESIAN_POINT('',(0.12,-0.32,-3.4));
#2222 = VECTOR('',#2223,1.);
#2223 = DIRECTION('',(0.,1.,0.));
#2224 = ORIENTED_EDGE('',*,*,#2172,.T.);
#2225 = ORIENTED_EDGE('',*,*,#2123,.F.);
#2226 = PLANE('',#2227);
#2227 = AXIS2_PLACEMENT_3D('',#2228,#2229,#2230);
#2228 = CARTESIAN_POINT('',(0.22,-0.32,-3.3));
#2229 = DIRECTION('',(-0.707106781187,0.,0.707106781187));
#2230 = DIRECTION('',(-0.,-1.,0.));
#2231 = ADVANCED_FACE('',(#2232),#2243,.T.);
#2232 = FACE_BOUND('',#2233,.F.);
#2233 = EDGE_LOOP('',(#2234,#2235,#2236,#2237));
#2234 = ORIENTED_EDGE('',*,*,#2187,.F.);
#2235 = ORIENTED_EDGE('',*,*,#2142,.T.);
#2236 = ORIENTED_EDGE('',*,*,#2211,.T.);
#2237 = ORIENTED_EDGE('',*,*,#2238,.F.);
#2238 = EDGE_CURVE('',#2188,#2212,#2239,.T.);
#2239 = LINE('',#2240,#2241);
#2240 = CARTESIAN_POINT('',(-0.32,-0.12,-3.4));
#2241 = VECTOR('',#2242,1.);
#2242 = DIRECTION('',(1.,0.,0.));
#2243 = PLANE('',#2244);
#2244 = AXIS2_PLACEMENT_3D('',#2245,#2246,#2247);
#2245 = CARTESIAN_POINT('',(-0.32,-0.22,-3.3));
#2246 = DIRECTION('',(0.,-0.707106781187,-0.707106781187));
#2247 = DIRECTION('',(-1.,-0.,-0.));
#2248 = ADVANCED_FACE('',(#2249),#2255,.F.);
#2249 = FACE_BOUND('',#2250,.F.);
#2250 = EDGE_LOOP('',(#2251,#2252,#2253,#2254));
#2251 = ORIENTED_EDGE('',*,*,#2238,.T.);
#2252 = ORIENTED_EDGE('',*,*,#2219,.T.);
#2253 = ORIENTED_EDGE('',*,*,#2164,.F.);
#2254 = ORIENTED_EDGE('',*,*,#2195,.F.);
#2255 = PLANE('',#2256);
#2256 = AXIS2_PLACEMENT_3D('',#2257,#2258,#2259);
#2257 = CARTESIAN_POINT('',(-0.32,-0.32,-3.4));
#2258 = DIRECTION('',(0.,0.,1.));
#2259 = DIRECTION('',(0.,1.,0.));
#2260 = ( GEOMETRIC_REPRESENTATION_CONTEXT(3) 
GLOBAL_UNCERTAINTY_ASSIGNED_CONTEXT((#2264)) 
GLOBAL_UNIT_ASSIGNED_CONTEXT((#2261,#2262,#2263)) REPRESENTATION_CONTEXT
('Context #1','3D Context with UNIT and UNCERTAINTY') );
#2261 = ( LENGTH_UNIT() NAMED_UNIT(*) SI_UNIT(.MILLI.,.METRE.) );
#2262 = ( NAMED_UNIT(*) PLANE_ANGLE_UNIT() SI_UNIT($,.RADIAN.) );
#2263 = ( NAMED_UNIT(*) SI_UNIT($,.STERADIAN.) SOLID_ANGLE_UNIT() );
#2264 = UNCERTAINTY_MEASURE_WITH_UNIT(LENGTH_MEASURE(1.E-07),#2261,
  'distance_accuracy_value','confusion accuracy');
#2265 = CONTEXT_DEPENDENT_SHAPE_REPRESENTATION(#2266,#2268);
#2266 = ( REPRESENTATION_RELATIONSHIP('','',#1917,#1890) 
REPRESENTATION_RELATIONSHIP_WITH_TRANSFORMATION(#2267) 
SHAPE_REPRESENTATION_RELATIONSHIP() );
#2267 = ITEM_DEFINED_TRANSFORMATION('','',#11,#1891);
#2268 = PRODUCT_DEFINITION_SHAPE('Placement','Placement of an item',
  #2269);
#2269 = NEXT_ASSEMBLY_USAGE_OCCURRENCE('196','0','',#1885,#1912,$);
#2270 = PRODUCT_RELATED_PRODUCT_CATEGORY('part',$,(#1914));
#2271 = CONTEXT_DEPENDENT_SHAPE_REPRESENTATION(#2272,#2274);
#2272 = ( REPRESENTATION_RELATIONSHIP('','',#1917,#1890) 
REPRESENTATION_RELATIONSHIP_WITH_TRANSFORMATION(#2273) 
SHAPE_REPRESENTATION_RELATIONSHIP() );
#2273 = ITEM_DEFINED_TRANSFORMATION('','',#11,#1895);
#2274 = PRODUCT_DEFINITION_SHAPE('Placement','Placement of an item',
  #2275);
#2275 = NEXT_ASSEMBLY_USAGE_OCCURRENCE('197','1','',#1885,#1912,$);
#2276 = MECHANICAL_DESIGN_GEOMETRIC_PRESENTATION_REPRESENTATION('',(
    #2277),#1872);
#2277 = STYLED_ITEM('color',(#2278),#37);
#2278 = PRESENTATION_STYLE_ASSIGNMENT((#2279,#2285));
#2279 = SURFACE_STYLE_USAGE(.BOTH.,#2280);
#2280 = SURFACE_SIDE_STYLE('',(#2281));
#2281 = SURFACE_STYLE_FILL_AREA(#2282);
#2282 = FILL_AREA_STYLE('',(#2283));
#2283 = FILL_AREA_STYLE_COLOUR('',#2284);
#2284 = DRAUGHTING_PRE_DEFINED_COLOUR('white');
#2285 = CURVE_STYLE('',#2286,POSITIVE_LENGTH_MEASURE(0.1),#2287);
#2286 = DRAUGHTING_PRE_DEFINED_CURVE_FONT('continuous');
#2287 = COLOUR_RGB('',9.803921802644E-02,9.803921802644E-02,
  9.803921802644E-02);
#2288 = MECHANICAL_DESIGN_GEOMETRIC_PRESENTATION_REPRESENTATION('',(
    #2289),#2260);
#2289 = STYLED_ITEM('color',(#2290),#1918);
#2290 = PRESENTATION_STYLE_ASSIGNMENT((#2291,#2297));
#2291 = SURFACE_STYLE_USAGE(.BOTH.,#2292);
#2292 = SURFACE_SIDE_STYLE('',(#2293));
#2293 = SURFACE_STYLE_FILL_AREA(#2294);
#2294 = FILL_AREA_STYLE('',(#2295));
#2295 = FILL_AREA_STYLE_COLOUR('',#2296);
#2296 = COLOUR_RGB('',0.399999997426,0.274509816483,0.);
#2297 = CURVE_STYLE('',#2298,POSITIVE_LENGTH_MEASURE(0.1),#2287);
#2298 = DRAUGHTING_PRE_DEFINED_CURVE_FONT('continuous');
ENDSEC;
END-ISO-10303-21;
